<svg width="158" height="56" viewBox="0 0 158 56" fill="none" xmlns="http://www.w3.org/2000/svg">
<path d="M26.2499 3.4978C26.1112 3.61663 26.032 3.78497 26.0122 4.00283C25.9924 4.20088 25.9825 4.37913 25.9825 4.53757C26.0815 4.6366 26.1508 4.71582 26.1904 4.77523C25.7151 5.409 25.2497 6.04277 24.7942 6.67654C24.3585 7.31031 23.9425 7.96388 23.5464 8.63726C23.4276 8.8155 23.3088 9.00365 23.1899 9.20171C23.0711 9.37995 22.9721 9.5681 22.8929 9.76616C22.9127 9.80577 22.9325 9.84538 22.9523 9.88499C22.9919 9.90479 23.0117 9.9345 23.0117 9.97411C23.0117 10.0731 22.9622 10.2019 22.8632 10.3603C22.7839 10.4989 22.7047 10.6574 22.6255 10.8356C22.5661 10.9941 22.5364 11.1624 22.5364 11.3407C22.5364 11.4991 22.6156 11.6576 22.774 11.816C21.9818 12.7468 21.2589 13.7272 20.6054 14.7571C19.9518 15.7671 19.3081 16.7871 18.6743 17.817L18.7635 17.9061C19.0606 18.2824 19.3378 18.5102 19.5953 18.5894C19.8726 18.6488 20.239 18.6884 20.6945 18.7082C21.051 18.728 21.3877 18.7676 21.7046 18.8271C22.0214 18.8865 22.269 19.1043 22.4472 19.4806C22.3086 19.8173 22.1403 20.0352 21.9422 20.1342C21.7442 20.2134 21.4768 20.2926 21.1401 20.3719C20.9817 20.4115 20.8232 20.461 20.6648 20.5204C20.5261 20.56 20.3776 20.5996 20.2192 20.6392C20.0409 20.6788 19.8429 20.6788 19.625 20.6392C19.4269 20.5996 19.219 20.5699 19.0011 20.5501C18.7833 20.5105 18.5654 20.5105 18.3476 20.5501C18.1495 20.5699 17.9515 20.6689 17.7534 20.8472C17.7336 20.867 17.6544 21.0155 17.5157 21.2928C17.3771 21.5503 17.1989 21.887 16.981 22.3029C16.7829 22.7188 16.5552 23.1743 16.2977 23.6694C16.0601 24.1646 15.8224 24.63 15.5847 25.0657C15.3669 25.5014 15.1787 25.8777 15.0203 26.1946C14.8618 26.5115 14.7628 26.7095 14.7232 26.7888C14.7628 26.8482 14.8123 26.9175 14.8717 26.9967C14.9312 27.0561 14.9807 27.1056 15.0203 27.1453C14.9015 27.5414 14.8123 27.9474 14.7529 28.3633C14.6935 28.7792 14.644 29.205 14.6044 29.6407C14.5648 30.017 14.5351 30.4131 14.5152 30.829C14.5152 31.2251 14.4855 31.6113 14.4261 31.9876C14.3667 32.3837 14.2677 32.76 14.129 33.1165C13.9904 33.473 13.7726 33.7998 13.4755 34.0969C13.2576 34.0771 13.0695 33.988 12.911 33.8295C12.7526 33.6909 12.6139 33.5225 12.4951 33.3245C12.3763 33.1264 12.2575 32.9185 12.1386 32.7006C12.0396 32.5026 11.9307 32.3342 11.8118 32.1956C12.0891 31.7995 12.2376 31.4034 12.2575 31.0073C12.2773 30.5914 12.2773 30.1854 12.2575 29.7893C12.2376 29.3931 12.2575 29.0069 12.3169 28.6306C12.3763 28.2543 12.5842 27.8979 12.9407 27.5612C12.8021 27.1849 12.6833 26.8482 12.5842 26.5511C12.4852 26.254 12.604 25.9371 12.9407 25.6004H12.911C13.0101 25.5608 13.1487 25.4618 13.3269 25.3034C13.5052 25.1251 13.6438 24.9865 13.7428 24.8875C13.4458 24.7092 13.3071 24.5706 13.3269 24.4715C13.3467 24.3527 13.426 24.2438 13.5646 24.1448C13.7032 24.0259 13.8518 23.8873 14.0102 23.7288C14.1885 23.5704 14.2776 23.3426 14.2776 23.0456L14.0993 22.8376L14.1885 22.7485C14.4063 22.6495 14.5351 22.5504 14.5747 22.4514C14.6341 22.3326 14.6638 22.1642 14.6638 21.9464H14.6341V21.9167C14.5152 21.6196 14.3568 21.4017 14.1588 21.2631C13.9607 21.1245 13.7428 21.0155 13.5052 20.9363C13.2873 20.8571 13.0497 20.7878 12.7922 20.7284C12.5545 20.6689 12.3268 20.5699 12.1089 20.4313C12.0099 20.5303 11.9109 20.6293 11.8118 20.7284C11.7128 20.8076 11.6435 20.8967 11.6039 20.9957C11.386 20.9363 11.1682 20.8571 10.9503 20.7581C10.7523 20.6392 10.5443 20.5501 10.3264 20.4907C10.1284 20.4115 9.92043 20.3818 9.70258 20.4016C9.50452 20.4214 9.28667 20.5204 9.049 20.6986L8.98959 20.7581C8.79153 21.0155 8.55387 21.1245 8.2766 21.0848C8.01913 21.0452 7.74186 20.9957 7.44478 20.9363C7.16751 20.8571 6.88033 20.8274 6.58325 20.8472C6.28617 20.867 6.0188 21.0551 5.78114 21.4116C5.30581 21.5899 4.84039 21.6592 4.38487 21.6196C3.90954 21.58 3.44412 21.5008 2.9886 21.3819C2.53308 21.2631 2.07756 21.1443 1.62204 21.0254C1.16652 20.8868 0.701094 20.8076 0.225768 20.7878C0.483237 20.4907 0.691192 20.2035 0.849634 19.9262C0.98827 19.649 1.14671 19.4311 1.32496 19.2727C1.4834 19.0944 1.70126 19.0053 1.97853 19.0053C2.236 18.9855 2.6024 19.1043 3.07772 19.3618L3.3748 19.0944C3.61246 19.2925 3.82042 19.3618 3.99867 19.3024C4.15711 19.2232 4.30565 19.1241 4.44428 19.0053C4.56312 18.8865 4.69185 18.8072 4.83049 18.7676C4.94932 18.7082 5.09786 18.7973 5.2761 19.035C5.2761 19.0548 5.28601 19.0647 5.30581 19.0647C5.30581 19.0647 5.30581 19.0746 5.30581 19.0944C5.32562 19.0944 5.34542 19.1043 5.36523 19.1241C5.36523 19.1241 5.37513 19.1241 5.39494 19.1241C5.51377 19.1439 5.69201 19.1439 5.92968 19.1241C6.14754 19.0845 6.31588 19.0449 6.43471 19.0053C6.92984 18.9063 7.28634 18.8865 7.50419 18.9459C7.74186 19.0053 8.01913 19.2529 8.33601 19.6886C8.41524 19.6094 8.51426 19.5103 8.63309 19.3915C8.75192 19.2727 8.83115 19.1637 8.87076 19.0647C9.14803 19.1043 9.39559 19.0944 9.61345 19.035C9.85112 18.9558 10.069 18.8865 10.267 18.8271C10.4849 18.7676 10.7027 18.7577 10.9206 18.7973C11.1385 18.837 11.386 18.9855 11.6633 19.243C11.8415 18.9063 12.0495 18.7082 12.2872 18.6488C12.5446 18.5696 12.8021 18.5597 13.0596 18.6191C13.3368 18.6587 13.6141 18.728 13.8914 18.8271C14.1687 18.9261 14.4261 18.9855 14.6638 19.0053C14.9015 19.0053 15.1094 18.9261 15.2877 18.7676C15.4857 18.5894 15.6243 18.2527 15.7036 17.7576C16.3175 17.4407 16.7433 17.0743 16.981 16.6584C17.2187 16.2425 17.3969 15.7176 17.5157 15.0839C17.5752 14.7472 17.6346 14.4699 17.694 14.252C17.7534 14.0144 17.8425 13.8163 17.9614 13.6579C18.0802 13.4994 18.2287 13.3509 18.407 13.2123C18.5852 13.0538 18.8229 12.8756 19.12 12.6775C19.1398 12.6577 19.1596 12.6478 19.1794 12.6478C19.1992 12.628 19.219 12.6082 19.2388 12.5884C19.2388 12.529 19.2289 12.4795 19.2091 12.4399C19.2091 12.3804 19.2091 12.321 19.2091 12.2616C19.1893 12.0636 19.2289 11.8655 19.3279 11.6675C19.4468 11.4496 19.5755 11.2317 19.7141 11.0139C19.8528 10.796 19.9815 10.5782 20.1003 10.3603C20.2192 10.1425 20.2786 9.91469 20.2786 9.67703C20.2786 9.39976 20.1994 9.1621 20.0409 8.96404C19.8825 8.76599 19.7141 8.58774 19.5359 8.4293L19.4468 8.45901C18.912 8.63726 18.3773 8.7957 17.8425 8.93434C17.3078 9.05317 16.7829 9.23141 16.268 9.46908C15.5154 9.80577 14.6737 10.0632 13.7428 10.2415C12.8318 10.4197 11.9604 10.3999 11.1286 10.1821C11.1286 10.0632 11.0691 9.9345 10.9503 9.79586C10.8513 9.65723 10.7523 9.5483 10.6532 9.46908L10.475 9.5582C10.2373 9.69684 10.0294 9.77606 9.85112 9.79586C9.67287 9.79586 9.50452 9.76616 9.34608 9.70674C9.20744 9.62752 9.049 9.53839 8.87076 9.43937C8.71231 9.34034 8.52416 9.26112 8.30631 9.20171C8.40533 8.96404 8.52416 8.7957 8.6628 8.69667C8.80144 8.59765 8.97968 8.50852 9.19754 8.4293C9.59365 8.68677 9.96995 8.84521 10.3264 8.90463C10.6829 8.96404 11.0295 8.96404 11.3662 8.90463C11.7227 8.84521 12.0693 8.73628 12.406 8.57784C12.7427 8.4194 13.0992 8.24115 13.4755 8.0431C13.6735 7.92427 13.9112 7.80544 14.1885 7.6866C14.4657 7.56777 14.7529 7.46875 15.05 7.38953C15.3471 7.2905 15.6441 7.23108 15.9412 7.21128C16.2383 7.17167 16.5057 7.18157 16.7433 7.24099L16.8622 7.27069C17.0998 7.03303 17.4068 6.83498 17.7831 6.67654C18.1792 6.49829 18.5852 6.32995 19.0011 6.1715C19.4369 6.01306 19.8726 5.84472 20.3083 5.66647C20.744 5.46842 21.1302 5.22085 21.4669 4.92377L21.6451 5.16144H21.7343C22.2294 5.16144 22.5859 5.08222 22.8037 4.92377C23.0216 4.74553 23.2791 4.46825 23.5761 4.09195C23.6554 3.97312 23.7742 3.81468 23.9326 3.61663C24.1109 3.39877 24.2891 3.19082 24.4674 2.99276C24.6654 2.77491 24.8635 2.59666 25.0615 2.45802C25.2596 2.29958 25.4378 2.23026 25.5963 2.25007C25.6755 2.25007 25.7448 2.30948 25.8042 2.42831C25.8637 2.52734 25.9231 2.64617 25.9825 2.78481C26.0419 2.92344 26.0914 3.06208 26.131 3.20072C26.1706 3.33935 26.2102 3.43838 26.2499 3.4978ZM44.5796 21.6196C44.5994 21.9167 44.54 22.2038 44.4014 22.4811C44.2825 22.7584 44.1736 23.006 44.0746 23.2238L43.1239 24.2339L42.5595 25.9272C42.3416 26.0857 42.1039 26.2441 41.8465 26.4026C41.6088 26.5412 41.391 26.6897 41.1929 26.8482C40.975 27.0264 40.777 27.2245 40.5987 27.4423C40.4403 27.6602 40.2621 27.8483 40.064 28.0068C39.866 28.1652 39.6283 28.3039 39.351 28.4227C39.0936 28.5217 38.8559 28.6405 38.638 28.7792C38.2419 29.0168 37.8656 29.2644 37.5091 29.5219C37.1724 29.7794 36.8159 30.0269 36.4396 30.2646C36.3406 30.3042 36.2614 30.3537 36.202 30.4131C36.1624 30.4527 36.0931 30.4923 35.994 30.5319C35.9346 30.5716 35.6771 30.6508 35.2216 30.7696C34.7661 30.8884 34.2611 31.0271 33.7065 31.1855C33.1718 31.3242 32.6667 31.4529 32.1914 31.5717C31.7161 31.6906 31.4487 31.75 31.3893 31.75C31.0328 31.7896 30.6664 31.8094 30.2901 31.8094C29.9138 31.8094 29.5375 31.8193 29.1612 31.8391L28.7156 32.1065C28.4977 31.948 28.2601 31.7995 28.0026 31.6608C27.7451 31.5222 27.5273 31.3737 27.349 31.2152C27.151 31.037 26.9529 30.8389 26.7549 30.6211C26.5568 30.3834 26.3786 30.1656 26.2201 29.9675C26.1211 29.6902 26.0221 29.4229 25.9231 29.1654C25.824 28.8881 25.7448 28.6207 25.6854 28.3633L25.5369 27.2344C25.4973 26.8581 25.4576 26.4917 25.418 26.1352C25.3982 25.7787 25.3685 25.4123 25.3289 25.036C25.6656 24.1051 25.9627 23.1743 26.2201 22.2435C26.4974 21.2928 26.8341 20.362 27.2302 19.4509C27.3292 19.2331 27.4184 19.0152 27.4976 18.7973C27.5966 18.5597 27.6956 18.3319 27.7947 18.1141C27.9135 17.8764 28.0422 17.6585 28.1809 17.4605C28.3195 17.2426 28.4383 17.0248 28.5374 16.8069C28.6364 16.5693 28.7156 16.3316 28.775 16.0939C28.8344 15.8365 28.9137 15.5988 29.0127 15.3809C29.0721 15.2621 29.1711 15.0938 29.3098 14.8759C29.4484 14.6382 29.5969 14.4006 29.7554 14.1629C29.9138 13.9055 30.0624 13.6579 30.201 13.4202C30.3594 13.1826 30.4882 12.9944 30.5872 12.8558C30.7456 12.6577 30.9041 12.4696 31.0625 12.2913C31.221 12.1131 31.3497 11.915 31.4487 11.6972C31.6468 11.3605 31.8349 10.9347 32.0132 10.4197C32.1914 9.90479 32.3895 9.44927 32.6073 9.05317C32.845 8.61745 33.1223 8.21144 33.4392 7.83514C33.7758 7.43904 34.0828 7.03303 34.3601 6.61712C34.6572 6.20121 34.9444 5.74569 35.2216 5.25056L36.5288 4.29991L37.1229 4.89407L38.5489 4.6564L39.4401 5.99326C39.4005 6.29034 39.351 6.62702 39.2916 7.00332C39.252 7.37962 39.2124 7.76583 39.1728 8.16193C39.153 8.53823 39.1332 8.91453 39.1134 9.29083C39.1134 9.64732 39.1332 9.96421 39.1728 10.2415C39.0737 10.598 38.9252 10.9743 38.7272 11.3704C38.5489 11.7467 38.341 12.0735 38.1033 12.3507L37.9845 13.955L36.7961 15.0244L36.6476 16.5395L35.6375 17.7279C35.5781 18.0051 35.5187 18.2923 35.4593 18.5894C35.3999 18.8667 35.3207 19.134 35.2216 19.3915C35.1226 19.6292 35.0038 19.8767 34.8651 20.1342C34.7265 20.3719 34.5879 20.6194 34.4492 20.8769C34.0531 21.2136 33.6471 21.5899 33.2312 22.0058C32.8153 22.4217 32.439 22.8376 32.1023 23.2535C31.9241 23.4714 31.7557 23.709 31.5973 23.9665C31.4586 24.2042 31.3101 24.4319 31.1516 24.6498C30.6367 25.3034 30.0822 25.9173 29.488 26.4917C28.8939 27.066 28.3096 27.6602 27.7352 28.2742L28.3888 29.4328C28.8047 29.5714 29.2305 29.7001 29.6663 29.819C30.102 29.9378 30.5377 30.0467 30.9734 30.1457C31.1715 30.1061 31.3992 30.0665 31.6567 30.0269C31.9142 29.9675 32.1815 29.9081 32.4588 29.8487C32.7361 29.7694 33.0034 29.6902 33.2609 29.611C33.5382 29.5318 33.7659 29.4526 33.9442 29.3733C34.3403 29.2149 34.7958 28.9871 35.3107 28.6901C35.8257 28.3732 36.2614 28.0959 36.6179 27.8582C37.2517 27.4621 37.8953 27.0561 38.5489 26.6402C39.2025 26.2243 39.8263 25.7886 40.4205 25.3331C40.8166 25.036 41.2325 24.6597 41.6682 24.2042C42.1039 23.7487 42.51 23.3228 42.8863 22.9267C43.2824 22.5108 43.629 22.1741 43.926 21.9167C44.2429 21.6592 44.4608 21.5602 44.5796 21.6196ZM36.4991 7.56777C36.0832 8.26096 35.6375 8.93434 35.1622 9.58791C34.7067 10.2217 34.2809 10.8852 33.8848 11.5783C33.7461 11.816 33.6273 12.0636 33.5283 12.321C33.4293 12.5587 33.3005 12.7964 33.1421 13.034C33.0034 13.2519 32.8549 13.4697 32.6965 13.6876C32.538 13.9055 32.3994 14.1431 32.2805 14.4006C32.0429 14.8561 31.825 15.3413 31.627 15.8563C31.4487 16.3514 31.2507 16.8366 31.0328 17.312C30.7952 17.7873 30.5179 18.2329 30.201 18.6488C29.8841 19.0647 29.5969 19.5103 29.3395 19.9857L28.8641 20.9363C28.8245 21.0353 28.7849 21.1146 28.7453 21.174C28.7057 21.2136 28.6661 21.2829 28.6265 21.3819C28.5473 21.5998 28.5076 21.8374 28.5076 22.0949C28.5076 22.3524 28.4779 22.59 28.4185 22.8079C28.3591 23.0456 28.27 23.2733 28.1512 23.4912C28.0323 23.709 27.9234 23.9269 27.8244 24.1448C27.7253 24.3626 27.6461 24.5904 27.5867 24.828C27.5273 25.0459 27.458 25.2638 27.3788 25.4816C27.5372 25.3232 27.7055 25.1845 27.8838 25.0657C28.0818 24.9271 28.27 24.7785 28.4482 24.6201C28.6265 24.4418 28.7948 24.2537 28.9533 24.0556C29.1117 23.8576 29.29 23.6793 29.488 23.5209C29.6663 23.3625 29.8544 23.2238 30.0525 23.105C30.2703 22.9663 30.4783 22.8277 30.6763 22.6891C30.9932 22.2534 31.2705 21.8077 31.5081 21.3522C31.627 21.1344 31.726 20.8868 31.8052 20.6095C31.9042 20.3323 32.0231 20.0847 32.1617 19.8668C32.2805 19.649 32.4291 19.441 32.6073 19.243C32.8054 19.0449 32.9737 18.837 33.1124 18.6191C33.2708 18.4012 33.3995 18.1735 33.4986 17.9358C33.6174 17.6982 33.7461 17.4704 33.8848 17.2525C34.162 16.8168 34.469 16.4009 34.8057 16.0048L34.9543 14.1332L36.0237 12.8855L36.1723 11.7566L36.915 10.7168L37.0041 9.05317L36.4991 7.56777ZM60.9486 22.0355C61.0279 22.3326 60.9981 22.59 60.8595 22.8079C60.7209 23.006 60.5327 23.1842 60.2951 23.3426C60.0772 23.5011 59.8296 23.6496 59.5524 23.7883C59.2949 23.9071 59.077 24.0457 58.8988 24.2042C58.0076 24.4022 57.1955 24.5508 56.4627 24.6498C55.7498 24.729 54.9576 24.8379 54.0861 24.9766C53.8287 25.0162 53.5811 25.0162 53.3434 24.9766C53.1256 24.9172 52.8978 24.8974 52.6601 24.9172C52.5215 24.9172 52.3928 24.9172 52.2739 24.9172C52.1551 24.8974 52.0363 24.8974 51.9174 24.9172C51.4619 24.9568 51.1648 25.1152 51.0262 25.3925C50.8876 25.65 50.7687 25.9569 50.6697 26.3134C50.5905 26.6501 50.4816 26.9769 50.3429 27.2938C50.2241 27.5909 49.9567 27.7988 49.5408 27.9177C49.5012 28.0167 49.5111 28.1058 49.5705 28.185C49.6497 28.2642 49.7092 28.3336 49.7488 28.393C49.4121 28.492 49.1843 28.6703 49.0655 28.9277C48.9665 29.1852 48.8773 29.4427 48.7981 29.7001C48.7189 29.9576 48.6001 30.1755 48.4416 30.3537C48.303 30.5319 48.0257 30.5914 47.6098 30.5319C46.9958 31.1855 46.273 31.7104 45.4411 32.1065C44.6093 32.5224 43.7478 32.7897 42.8565 32.9086C42.6981 32.8294 42.5397 32.7303 42.3812 32.6115C42.2426 32.4927 42.094 32.3837 41.9356 32.2847C41.797 32.1857 41.6385 32.1065 41.4603 32.0471C41.3018 32.0074 41.1137 32.0074 40.8958 32.0471C40.876 31.6311 40.7968 31.2449 40.6582 30.8884C40.4997 30.5319 40.3017 30.1953 40.064 29.8784C40.0244 29.5219 40.0739 29.1951 40.2125 28.898C40.3314 28.5811 40.4601 28.2742 40.5988 27.9771C40.7374 27.68 40.8562 27.3829 40.9552 27.0858C41.0345 26.769 41.0147 26.4125 40.8958 26.0164C41.0939 25.8975 41.2226 25.7589 41.282 25.6004C41.3613 25.442 41.4108 25.2836 41.4306 25.1251C41.4702 24.9469 41.5197 24.7884 41.5791 24.6498C41.6385 24.4914 41.7772 24.3626 41.995 24.2636C41.8366 23.7883 41.8564 23.4417 42.0544 23.2238C42.2723 22.9862 42.5298 22.7782 42.8268 22.6C43.1239 22.4217 43.4012 22.2237 43.6587 22.0058C43.9161 21.7879 44.0152 21.4611 43.9557 21.0254C44.0746 20.9066 44.2132 20.8076 44.3716 20.7284C44.5301 20.6491 44.6786 20.5798 44.8173 20.5204C44.9757 20.4412 45.1242 20.362 45.2629 20.2827C45.4015 20.2035 45.5303 20.0946 45.6491 19.956C45.5105 19.8569 45.4411 19.7579 45.4411 19.6589C45.4609 19.5598 45.4906 19.4608 45.5303 19.3618C45.5699 19.243 45.6095 19.1241 45.6491 19.0053C45.7085 18.8865 45.7085 18.7676 45.6491 18.6488C46.1838 18.728 46.6493 18.6587 47.0454 18.4409C47.4613 18.2032 47.8475 17.9655 48.204 17.7279C48.5803 17.4902 48.9566 17.3219 49.3329 17.2228C49.7092 17.1238 50.1449 17.2426 50.64 17.5793C50.6796 17.718 50.739 17.9259 50.8183 18.2032C50.9173 18.4607 51.0064 18.728 51.0856 19.0053C51.1847 19.2826 51.2738 19.5499 51.353 19.8074C51.4322 20.0649 51.4817 20.253 51.5015 20.3719C51.5015 20.4709 51.5015 20.6293 51.5015 20.8472C51.5015 21.065 51.5015 21.3027 51.5015 21.5602C51.5015 21.7978 51.5015 22.0256 51.5015 22.2435C51.5015 22.4613 51.5015 22.6297 51.5015 22.7485C52.0759 23.0852 52.6502 23.2931 53.2246 23.3724C53.7989 23.4318 54.3733 23.2931 54.9476 22.9564C55.1655 23.1545 55.3735 23.2139 55.5715 23.1347C55.7696 23.0357 55.9577 22.9267 56.136 22.8079C56.334 22.6891 56.5321 22.6297 56.7301 22.6297C56.9282 22.6099 57.1262 22.7683 57.3243 23.105C57.6016 22.8475 57.8887 22.6891 58.1858 22.6297C58.4829 22.5504 58.7899 22.5108 59.1067 22.5108C59.4236 22.491 59.7306 22.4613 60.0277 22.4217C60.3446 22.3821 60.6516 22.2534 60.9486 22.0355ZM49.5408 22.5405C49.5408 22.2435 49.5903 21.9266 49.6894 21.5899C49.7884 21.2532 49.8676 20.9264 49.927 20.6095C49.9864 20.2728 49.9765 19.956 49.8973 19.6589C49.8379 19.3618 49.6497 19.0944 49.3329 18.8568C49.115 18.9756 48.9368 19.1439 48.7981 19.3618C48.6595 19.5598 48.5208 19.7678 48.3822 19.9857C48.2436 20.1837 48.0752 20.3521 47.8772 20.4907C47.6989 20.6293 47.4613 20.6689 47.1642 20.6095C47.0652 20.8472 47.0652 21.0452 47.1642 21.2037C47.2632 21.3423 47.382 21.481 47.5207 21.6196C47.6593 21.7384 47.7881 21.8672 47.9069 22.0058C48.0455 22.1444 48.095 22.3227 48.0554 22.5405C48.1346 22.6 48.2436 22.6594 48.3822 22.7188C48.5208 22.7584 48.6595 22.7881 48.7981 22.8079C48.9566 22.8079 49.1051 22.7881 49.2437 22.7485C49.3824 22.7089 49.4814 22.6396 49.5408 22.5405ZM49.3329 24.9172C48.9368 24.9172 48.5902 24.828 48.2931 24.6498C48.0158 24.4517 47.7286 24.2339 47.4316 23.9962C47.1543 23.7586 46.8572 23.5407 46.5403 23.3426C46.2432 23.1248 45.8768 22.9961 45.4411 22.9564C45.2629 23.1941 45.0549 23.4219 44.8173 23.6397C44.5796 23.8378 44.3716 24.0556 44.1934 24.2933C44.0152 24.531 43.8864 24.7884 43.8072 25.0657C43.7478 25.343 43.7973 25.6599 43.9557 26.0164C43.5002 26.2342 43.1932 26.5511 43.0348 26.967C42.8764 27.3631 42.7674 27.7988 42.708 28.2742C42.6684 28.7495 42.6288 29.2248 42.5892 29.7001C42.5496 30.1755 42.4208 30.6013 42.203 30.9776L42.8565 30.5319C42.9358 30.5716 42.9952 30.631 43.0348 30.7102C43.0942 30.7894 43.1041 30.8785 43.0645 30.9776C43.2229 30.8191 43.4012 30.7003 43.5992 30.6211C43.7973 30.522 43.9954 30.4527 44.1934 30.4131C44.4113 30.3537 44.6192 30.3042 44.8173 30.2646C45.0351 30.225 45.2431 30.1656 45.4411 30.0863C45.9363 30.3636 46.2928 30.423 46.5106 30.2646C46.7285 30.1061 46.9067 29.8685 47.0454 29.5516C47.184 29.2347 47.3325 28.9079 47.491 28.5712C47.6494 28.2147 47.9069 27.9969 48.2634 27.9177L48.0554 27.7097C48.3921 27.2938 48.6892 26.868 48.9467 26.4323C49.2239 25.9767 49.3527 25.4717 49.3329 24.9172ZM89.1117 25.4816C88.6562 25.6995 88.3492 25.9668 88.1907 26.2837C88.0323 26.6006 87.9036 26.9274 87.8045 27.2641C87.7253 27.6008 87.6164 27.9276 87.4778 28.2444C87.3589 28.5415 87.0915 28.7891 86.6756 28.9871C86.5766 29.3436 86.3786 29.5912 86.0815 29.7298C85.8042 29.8685 85.5071 29.9972 85.1902 30.116C84.8734 30.2151 84.5862 30.3537 84.3287 30.5319C84.0911 30.7102 83.9722 31.0172 83.9722 31.4529C83.5761 31.6708 83.1404 31.8688 82.6651 32.0471C82.2096 32.2253 81.7243 32.354 81.2094 32.4333C80.7143 32.5323 80.2191 32.5719 79.724 32.5521C79.2289 32.5323 78.7634 32.4333 78.3277 32.255C78.0307 32.1164 77.7435 31.9381 77.4662 31.7203C77.3672 31.641 77.2682 31.5717 77.1691 31.5123C77.0899 31.4727 77.0008 31.4034 76.9018 31.3044C76.6641 31.0667 76.466 30.7894 76.3076 30.4725C76.1492 30.1556 76.0204 29.819 75.9214 29.4625C75.8224 29.106 75.7431 28.7495 75.6837 28.393C75.6243 28.0365 75.5748 27.6998 75.5352 27.3829L76.6344 24.4121C76.06 23.9566 75.5946 23.4318 75.2381 22.8376C74.8816 22.2237 74.4459 21.6592 73.931 21.1443C73.8319 21.2829 73.7032 21.4017 73.5448 21.5008C73.3863 21.5998 73.3269 21.7582 73.3665 21.9761L73.6636 22.2435C73.01 22.9564 72.3465 23.7685 71.6732 24.6795C71.0196 25.5707 70.5047 26.4719 70.1284 27.3829C69.6926 27.3631 69.3857 27.472 69.2074 27.7097C69.0292 27.9276 68.8806 28.185 68.7618 28.4821C68.643 28.7594 68.4944 29.0168 68.3162 29.2545C68.1379 29.4922 67.8409 29.5912 67.4249 29.5516C67.3259 29.7694 67.2269 30.0071 67.1279 30.2646C67.0288 30.5022 66.91 30.73 66.7714 30.9479C66.6327 31.1657 66.4644 31.344 66.2663 31.4826C66.0683 31.641 65.8207 31.7203 65.5236 31.7203C65.3652 31.5618 65.2761 31.3935 65.2563 31.2152C65.2365 31.037 65.2563 30.8587 65.3157 30.6805C65.3751 30.4824 65.4543 30.2943 65.5534 30.116C65.6524 29.918 65.7217 29.7298 65.7613 29.5516C65.9197 28.9772 66.2069 28.4623 66.6228 28.0068C67.0387 27.5315 67.4547 27.066 67.8706 26.6105C68.2865 26.1352 68.643 25.6401 68.94 25.1251C69.2371 24.6102 69.356 24.0061 69.2965 23.3129C69.554 23.2931 69.8115 23.2436 70.0689 23.1644C70.3462 23.0654 70.5938 22.9465 70.8116 22.8079C71.0493 22.6495 71.2276 22.4613 71.3464 22.2435C71.485 22.0058 71.5345 21.7285 71.4949 21.4116C71.3365 21.3324 71.2474 21.2235 71.2276 21.0848C71.2077 20.9264 71.2077 20.768 71.2276 20.6095C71.6633 20.4709 72.0099 20.2332 72.2673 19.8965C72.5446 19.54 72.7922 19.1637 73.01 18.7676C73.2279 18.3715 73.4358 17.9754 73.6339 17.5793C73.8517 17.1634 74.129 16.8069 74.4657 16.5098C74.743 16.6683 75.0203 16.8069 75.2975 16.9257C75.5748 17.0248 75.8422 17.1634 76.0996 17.3417C75.9214 17.5793 75.8125 17.8071 75.7729 18.0249C75.7332 18.2428 75.7134 18.4706 75.7134 18.7082C75.7134 18.9261 75.7134 19.1439 75.7134 19.3618C75.7134 19.5797 75.654 19.8074 75.5352 20.0451C75.8521 20.3223 76.1194 20.6491 76.3373 21.0254C76.5552 21.4017 76.8324 21.7186 77.1691 21.9761C77.4068 21.7978 77.6742 21.7087 77.9712 21.7087C78.2683 21.6889 78.5654 21.6889 78.8625 21.7087C79.1794 21.7087 79.4764 21.6889 79.7537 21.6493C80.031 21.5899 80.2587 21.4215 80.437 21.1443C80.5162 21.2235 80.635 21.2631 80.7935 21.2631C80.9519 21.2631 81.1104 21.2631 81.2688 21.2631C81.4273 21.2631 81.5659 21.2928 81.6847 21.3522C81.8036 21.3918 81.8729 21.481 81.8927 21.6196C81.9125 21.778 81.9026 21.887 81.863 21.9464C81.8432 22.0058 81.8135 22.1048 81.7738 22.2435C81.7342 22.4019 81.7243 22.4811 81.7441 22.4811C81.7639 22.4811 81.7441 22.5504 81.6847 22.6891C81.5857 22.9465 81.4173 23.1644 81.1797 23.3426C80.9618 23.5209 80.7341 23.6991 80.4964 23.8774C80.2785 24.0358 80.0706 24.224 79.8725 24.4418C79.6943 24.6399 79.6052 24.8974 79.6052 25.2142C79.1695 25.3727 78.8625 25.6103 78.6842 25.9272C78.506 26.2243 78.3871 26.5709 78.3277 26.967C78.2683 27.3433 78.2287 27.7394 78.2089 28.1553C78.1891 28.5514 78.1198 28.9178 78.0009 29.2545L78.2683 29.5516L78.506 29.2545C78.7833 29.6506 79.11 29.8982 79.4863 29.9972C79.8824 30.0962 80.2884 30.1259 80.7044 30.0863C80.9024 29.7893 81.1302 29.5516 81.3876 29.3733C81.6649 29.1951 81.9521 29.0466 82.2492 28.9277C82.5661 28.8089 82.8829 28.7 83.1998 28.6009C83.5365 28.5019 83.8534 28.3831 84.1505 28.2444C84.3881 28.1256 84.5862 27.9969 84.7446 27.8582C84.9229 27.7196 85.111 27.5612 85.3091 27.3829C85.9032 26.8284 86.4875 26.2837 87.0618 25.749C87.656 25.2142 88.2502 24.6696 88.8443 24.1151C88.9631 24.1151 89.0424 24.1745 89.082 24.2933C89.1216 24.4121 89.1414 24.5508 89.1414 24.7092C89.1414 24.8478 89.1315 24.9964 89.1117 25.1548C89.1117 25.2935 89.1117 25.4024 89.1117 25.4816ZM95.4692 12.8261C95.1127 12.9647 94.9146 13.1727 94.875 13.4499C94.8354 13.7272 94.8156 14.0144 94.8156 14.3115C94.8354 14.6085 94.8255 14.8858 94.7859 15.1433C94.7463 15.4007 94.5482 15.5691 94.1917 15.6483C94.0531 15.4106 93.8749 15.1928 93.657 14.9947C93.4589 14.7769 93.2609 14.5689 93.0628 14.3709C92.8648 14.153 92.7063 13.9253 92.5875 13.6876C92.4687 13.4499 92.4291 13.1628 92.4687 12.8261L93.9541 11.103C94.1917 11.1822 94.3799 11.2813 94.5185 11.4001C94.6572 11.5189 94.776 11.6576 94.875 11.816C94.974 11.9744 95.0632 12.1428 95.1424 12.321C95.2414 12.4795 95.3503 12.6478 95.4692 12.8261ZM101.232 26.1352C101.252 26.5709 101.213 26.8779 101.114 27.0561C101.034 27.2344 100.935 27.3829 100.817 27.5017C100.698 27.6008 100.589 27.7196 100.49 27.8582C100.411 27.9771 100.371 28.1949 100.371 28.5118C99.9154 29.0069 99.5491 29.3733 99.2718 29.611C98.9945 29.8289 98.7271 30.017 98.4697 30.1755C98.2122 30.3141 97.925 30.4725 97.6081 30.6508C97.2913 30.829 96.8555 31.1063 96.301 31.4826L96.093 31.5123C96.0336 31.8094 95.9247 31.9777 95.7663 32.0173C95.6276 32.0768 95.4593 32.1065 95.2612 32.1065C95.083 32.1065 94.9047 32.1263 94.7265 32.1659C94.5482 32.2055 94.3997 32.3738 94.2809 32.6709C93.9442 32.7699 93.657 32.8096 93.4193 32.7897C93.1817 32.7699 92.8747 32.76 92.4984 32.76C92.3796 32.76 92.2211 32.7501 92.0231 32.7303C91.8448 32.7105 91.6963 32.7204 91.5774 32.76C91.4982 32.7798 91.4091 32.8294 91.3101 32.9086C91.2309 33.0076 91.1417 33.0868 91.0427 33.1462C90.9437 33.2057 90.8446 33.2255 90.7456 33.2057C90.6466 33.2057 90.5575 33.1264 90.4783 32.968C90.2406 33.0274 90.0227 33.0274 89.8247 32.968C89.6266 32.9086 89.4385 32.8096 89.2602 32.6709C89.082 32.5323 88.9136 32.3639 88.7552 32.1659C88.6166 31.9876 88.4779 31.8193 88.3393 31.6608C88.2403 31.542 88.1313 31.4331 88.0125 31.3341C87.8937 31.235 87.7847 31.136 87.6857 31.037C87.4679 30.8191 87.3094 30.5419 87.2104 30.2052C87.1114 29.8685 87.0519 29.5219 87.0321 29.1654C87.0123 28.8089 87.0222 28.4524 87.0618 28.0959C87.1015 27.7394 87.1609 27.4225 87.2401 27.1453C87.4183 26.967 87.5471 26.769 87.6263 26.5511C87.6857 26.3134 87.7352 26.0758 87.7748 25.8381C87.8343 25.6004 87.8937 25.3727 87.9531 25.1548C88.0323 24.9172 88.161 24.7092 88.3393 24.531C88.3393 24.2735 88.3789 24.0358 88.4581 23.818C88.5571 23.6001 88.676 23.3922 88.8146 23.1941C88.9731 22.9961 89.1414 22.8178 89.3196 22.6594C89.5177 22.4811 89.6959 22.3128 89.8544 22.1543C90.0128 22.1543 90.1713 22.1543 90.3297 22.1543C90.4882 22.1345 90.6367 22.1444 90.7753 22.184C90.914 22.2038 91.0328 22.2633 91.1318 22.3623C91.2309 22.4415 91.3101 22.5801 91.3695 22.7782C91.5081 23.3129 91.4685 23.7487 91.2507 24.0853C91.0526 24.4022 90.8248 24.7092 90.5674 25.0063C90.3099 25.3034 90.102 25.6103 89.9435 25.9272C89.7851 26.2441 89.8247 26.6501 90.0623 27.1453C89.8445 27.1453 89.6959 27.2047 89.6167 27.3235C89.5573 27.4423 89.5078 27.581 89.4682 27.7394C89.4484 27.878 89.4088 28.0167 89.3494 28.1553C89.2899 28.294 89.1711 28.393 88.9929 28.4524C89.1117 28.5712 89.1711 28.7792 89.1711 29.0763C89.1909 29.3733 89.2206 29.6605 89.2602 29.9378C89.3196 30.1953 89.4088 30.4032 89.5276 30.5617C89.6662 30.7201 89.9138 30.73 90.2703 30.5914C90.5278 30.8092 90.8347 30.8983 91.1912 30.8587C91.5675 30.8191 91.9141 30.8092 92.231 30.829C92.5083 30.6508 92.746 30.5617 92.944 30.5617C93.1421 30.5419 93.3302 30.5617 93.5085 30.6211C93.6867 30.6607 93.8749 30.7003 94.0729 30.7399C94.271 30.7795 94.5086 30.7498 94.7859 30.6508C94.8651 30.3141 95.0037 30.116 95.2018 30.0566C95.3999 29.9972 95.5979 29.9675 95.796 29.9675C95.994 29.9477 96.1723 29.9081 96.3307 29.8487C96.5089 29.7893 96.6278 29.5912 96.6872 29.2545C96.8456 29.0565 97.0338 28.9475 97.2516 28.9277C97.4695 28.8881 97.6874 28.8485 97.9052 28.8089C98.1429 28.7693 98.3508 28.6901 98.5291 28.5712C98.7271 28.4326 98.8658 28.1751 98.945 27.7988C99.2817 27.5414 99.5193 27.3532 99.658 27.2344C99.8164 27.0957 99.9452 26.9868 100.044 26.9076C100.143 26.8284 100.272 26.7392 100.43 26.6402C100.589 26.5412 100.856 26.3728 101.232 26.1352ZM120.246 22.8673C120.028 23.1446 119.859 23.4516 119.74 23.7883C119.622 24.125 119.473 24.4418 119.295 24.7389C119.136 25.036 118.928 25.2836 118.671 25.4816C118.433 25.6797 118.097 25.7688 117.661 25.749C117.344 25.8678 117.106 26.0857 116.948 26.4026C116.809 26.6996 116.671 27.0066 116.532 27.3235C116.393 27.6206 116.215 27.8681 115.997 28.0662C115.779 28.2444 115.453 28.2642 115.017 28.1256C114.462 28.3633 113.957 28.6802 113.502 29.0763C113.066 29.4526 112.65 29.8487 112.254 30.2646C112.115 30.4032 111.957 30.5815 111.779 30.7993C111.601 30.9974 111.432 31.1459 111.274 31.2449C111.135 31.3242 110.996 31.3341 110.858 31.2746C110.719 31.2152 110.59 31.1558 110.472 31.0964C110.353 31.0172 110.234 30.9776 110.115 30.9776C110.016 30.9776 109.927 31.0667 109.848 31.2449C109.986 31.5222 110.016 31.7104 109.937 31.8094C109.858 31.9282 109.729 32.0173 109.551 32.0768C109.372 32.1362 109.184 32.1857 108.986 32.2253C108.788 32.2649 108.63 32.3342 108.511 32.4333C108.273 32.6511 108.105 32.9185 108.006 33.2354C107.907 33.5522 107.818 33.8691 107.739 34.186C107.659 34.5029 107.54 34.8 107.382 35.0773C107.243 35.3743 107.006 35.6021 106.669 35.7605C106.867 35.8992 106.946 36.0378 106.907 36.1764C106.887 36.3151 106.837 36.4537 106.758 36.5924C106.679 36.7508 106.62 36.8993 106.58 37.038C106.56 37.1766 106.639 37.3152 106.818 37.4539C106.52 37.8302 106.253 38.2362 106.015 38.6719C105.798 39.1076 105.58 39.5433 105.362 39.979C105.144 40.4346 104.906 40.8703 104.649 41.2862C104.411 41.7219 104.104 42.1081 103.728 42.4448L103.817 43.1578C103.52 43.0786 103.332 43.0885 103.253 43.1875C103.193 43.2865 103.164 43.4252 103.164 43.6034C103.164 43.7817 103.164 43.9599 103.164 44.1381C103.183 44.3362 103.124 44.4847 102.985 44.5838C102.926 44.663 102.857 44.7224 102.777 44.762C102.718 44.8016 102.658 44.8511 102.599 44.9106C101.965 45.3859 101.53 45.9899 101.292 46.7227C101.252 46.8416 101.223 46.9604 101.203 47.0792C101.183 47.1981 101.153 47.3268 101.114 47.4654C101.015 47.7427 100.856 48.0299 100.638 48.327C100.42 48.624 100.183 48.931 99.9253 49.2479C99.6679 49.5648 99.4203 49.8916 99.1827 50.2283C98.945 50.5848 98.7568 50.9412 98.6182 51.2977C98.3013 51.2581 98.0538 51.2878 97.8755 51.3869C97.6775 51.5057 97.519 51.6542 97.4002 51.8325C97.2813 52.0305 97.1823 52.2385 97.1031 52.4564C97.0239 52.6742 96.9249 52.8624 96.806 53.0208C96.6674 53.199 96.499 53.3278 96.301 53.407C96.0831 53.506 95.8059 53.506 95.4692 53.407L94.1323 54.625C93.8947 54.4864 93.6669 54.4567 93.449 54.5359C93.2114 54.6151 92.9836 54.7241 92.7658 54.8627C92.5281 55.0013 92.3003 55.1103 92.0825 55.1895C91.8448 55.2687 91.5972 55.239 91.3398 55.1003C91.2011 55.2588 91.0823 55.338 90.9833 55.338C90.8843 55.3578 90.7654 55.2786 90.6268 55.1003L90.1812 55.5757C89.9435 55.3776 89.6563 55.1895 89.3196 55.0112C88.9631 54.8528 88.6364 54.6646 88.3393 54.4468C88.0422 54.2487 87.8045 54.0111 87.6263 53.7338C87.448 53.4763 87.4183 53.1396 87.5372 52.7237C87.4976 52.6049 87.4381 52.4762 87.3589 52.3375C87.2599 52.1989 87.1807 52.0503 87.1213 51.8919C87.0618 51.7533 87.0222 51.6047 87.0024 51.4463C86.9826 51.3076 87.0222 51.1789 87.1213 51.0601C86.943 50.7234 86.8836 50.3768 86.943 50.0203C86.9826 49.6836 87.0519 49.3469 87.151 49.0102C87.25 48.6735 87.3292 48.3369 87.3886 48.0002C87.448 47.6635 87.3886 47.3268 87.2104 46.9901C87.448 46.8119 87.6263 46.5841 87.7451 46.3068C87.8442 46.0295 87.9432 45.7424 88.0422 45.4453C88.1214 45.1482 88.2105 44.861 88.3096 44.5838C88.4086 44.3065 88.5769 44.0787 88.8146 43.9005L88.7849 43.4252C89.7157 42.4349 90.706 41.5239 91.7557 40.692C92.7856 39.88 93.9541 39.276 95.2612 38.8799C95.5187 38.4243 95.8554 38.0876 96.2713 37.8698C96.6872 37.6717 97.113 37.4836 97.5487 37.3053C97.9646 37.1469 98.3508 36.9389 98.7073 36.6815C99.0638 36.4438 99.3312 36.0576 99.5094 35.5229C99.6085 35.7407 99.7075 35.8299 99.8065 35.7902C99.9055 35.7704 100.005 35.7209 100.104 35.6417C100.222 35.5823 100.331 35.5328 100.43 35.4932C100.529 35.4734 100.628 35.5625 100.727 35.7605C100.926 35.1664 101.242 34.691 101.678 34.3346C102.134 33.9781 102.629 33.6612 103.164 33.3839C103.718 33.1264 104.273 32.869 104.827 32.6115C105.382 32.3738 105.867 32.0768 106.283 31.7203C106.719 31.3638 107.045 30.9281 107.263 30.4131C107.481 29.8784 107.531 29.1951 107.412 28.3633C107.59 28.2444 107.709 28.0959 107.768 27.9177C107.828 27.7196 107.867 27.5216 107.887 27.3235C107.927 27.1254 107.976 26.9472 108.036 26.7888C108.095 26.6303 108.224 26.5214 108.422 26.462C108.283 26.2441 108.115 26.1451 107.917 26.1649C107.719 26.1847 107.511 26.2441 107.293 26.3431C107.095 26.4422 106.907 26.5412 106.728 26.6402C106.55 26.7392 106.402 26.7591 106.283 26.6996C106.223 26.9769 106.095 27.175 105.897 27.2938C105.718 27.4126 105.52 27.5216 105.302 27.6206C105.085 27.6998 104.857 27.7889 104.619 27.8879C104.382 27.987 104.193 28.1454 104.055 28.3633C103.876 28.2841 103.708 28.3237 103.55 28.4821C103.411 28.6207 103.263 28.7792 103.104 28.9574C102.965 29.1159 102.807 29.2347 102.629 29.3139C102.451 29.3931 102.243 29.3139 102.005 29.0763C101.886 29.3931 101.688 29.6011 101.411 29.7001C101.153 29.7992 100.866 29.8487 100.549 29.8487C100.232 29.8487 99.9055 29.8289 99.5689 29.7893C99.252 29.7496 98.9648 29.7595 98.7073 29.819L98.2023 29.3139C98.1627 29.413 98.1033 29.4922 98.024 29.5516C97.925 29.611 97.826 29.6209 97.727 29.5813C97.5685 29.2446 97.42 28.8881 97.2813 28.5118C97.1229 28.1157 97.0239 27.7295 96.9843 27.3532C96.9249 26.9571 96.9546 26.5808 97.0734 26.2243C97.1922 25.848 97.4299 25.5212 97.7864 25.244C98.3409 24.2339 99.0638 23.4417 99.9551 22.8673C100.054 22.9465 100.163 22.9763 100.282 22.9564C100.401 22.9168 100.52 22.8673 100.638 22.8079C100.777 22.7287 100.906 22.6495 101.025 22.5702C101.143 22.4712 101.252 22.4118 101.351 22.392C101.411 22.1741 101.52 21.9662 101.678 21.7681C101.856 21.5701 102.045 21.3918 102.243 21.2334C102.46 21.0749 102.678 20.9363 102.896 20.8175C103.134 20.6788 103.352 20.56 103.55 20.461C103.926 20.2827 104.273 20.0649 104.589 19.8074C104.926 19.5301 105.263 19.2727 105.6 19.035C105.936 18.7775 106.283 18.5597 106.639 18.3814C106.996 18.2032 107.402 18.1141 107.857 18.1141L108.392 18.5894C108.055 18.7874 107.758 19.035 107.501 19.3321C107.263 19.6094 107.016 19.8965 106.758 20.1936C106.501 20.4709 106.223 20.7284 105.926 20.966C105.629 21.2037 105.263 21.3621 104.827 21.4413C104.471 22.1345 103.985 22.7287 103.371 23.2238C102.777 23.6991 102.163 24.1448 101.53 24.5607C101.53 24.8577 101.44 25.0954 101.262 25.2737C101.084 25.4519 100.876 25.6103 100.638 25.749C100.401 25.8876 100.163 26.0164 99.9253 26.1352C99.6877 26.2342 99.4896 26.3728 99.3312 26.5511C99.1926 26.7095 99.1232 26.9175 99.1232 27.175C99.1232 27.4126 99.252 27.7295 99.5094 28.1256C99.7471 28.0068 100.034 27.9276 100.371 27.8879C100.708 27.8483 101.034 27.7988 101.351 27.7394C101.668 27.6602 101.945 27.5513 102.183 27.4126C102.441 27.2542 102.619 27.0165 102.718 26.6996C102.995 26.462 103.292 26.3134 103.609 26.254C103.926 26.1946 104.253 26.1847 104.589 26.2243C105.243 25.5113 105.897 24.8577 106.55 24.2636C107.224 23.6496 107.857 23.0258 108.452 22.392C109.046 21.7582 109.59 21.0848 110.085 20.3719C110.6 19.6391 111.046 18.7973 111.422 17.8467C111.818 17.7279 112.175 17.7774 112.492 17.9952C112.809 18.2131 113.036 18.4904 113.175 18.8271C113.135 19.0647 113.066 19.2925 112.967 19.5103C112.888 19.7084 112.809 19.9064 112.729 20.1045C112.67 20.2827 112.621 20.4808 112.581 20.6986C112.561 20.9165 112.601 21.1641 112.7 21.4413C112.541 21.4017 112.413 21.4512 112.314 21.5899C112.234 21.7285 112.145 21.8474 112.046 21.9464C112.106 22.2038 112.096 22.4415 112.016 22.6594C111.937 22.8574 111.838 23.0555 111.719 23.2535C111.601 23.4318 111.492 23.6298 111.393 23.8477C111.313 24.0655 111.294 24.3032 111.333 24.5607C111.056 25.0756 110.848 25.6202 110.709 26.1946C110.59 26.7491 110.511 27.3136 110.472 27.8879L111.006 28.3633C111.264 27.987 111.581 27.7196 111.957 27.5612C112.353 27.4027 112.749 27.274 113.145 27.175C113.541 27.0561 113.928 26.9274 114.304 26.7888C114.68 26.6303 115.007 26.3629 115.284 25.9866C115.403 25.4123 115.651 25.0063 116.027 24.7686C116.403 24.5112 116.799 24.2933 117.215 24.1151C117.631 23.9368 118.027 23.7388 118.404 23.5209C118.8 23.2832 119.077 22.9069 119.235 22.392H119.978C119.939 22.491 119.958 22.5801 120.038 22.6594C120.117 22.7386 120.186 22.8079 120.246 22.8673ZM103.817 36.0279C103.619 36.1467 103.401 36.2557 103.164 36.3547C102.926 36.4537 102.688 36.5626 102.451 36.6815C102.213 36.8003 101.995 36.9389 101.797 37.0974C101.599 37.2558 101.45 37.4539 101.351 37.6915C101.133 37.5727 100.926 37.5628 100.727 37.6618C100.549 37.7807 100.371 37.9094 100.193 38.048C100.014 38.2065 99.8263 38.3352 99.6283 38.4342C99.45 38.5333 99.252 38.5234 99.0341 38.4045C98.6578 38.6422 98.3013 38.8997 97.9646 39.1769C97.6081 39.4542 97.2516 39.7216 96.8951 39.979C96.5387 40.2563 96.1723 40.5039 95.796 40.7217C95.3999 40.9594 94.9839 41.1377 94.5482 41.2565C94.3304 41.613 94.0432 41.8903 93.6867 42.0883C93.3302 42.3062 92.9737 42.5141 92.6172 42.7122C92.2409 42.9102 91.9042 43.1479 91.6071 43.4252C91.3101 43.7024 91.1219 44.0886 91.0427 44.5838C90.4287 44.9799 90.0128 45.4849 89.795 46.0989C89.5573 46.7326 89.4286 47.3961 89.4088 48.0893C89.389 48.8023 89.4187 49.5153 89.4979 50.2283C89.5771 50.9611 89.6167 51.6245 89.6167 52.2187C89.8742 52.5158 90.1317 52.7237 90.3891 52.8426C90.6466 52.9614 90.914 53.0208 91.1912 53.0208C91.4685 53.0208 91.7557 52.9812 92.0528 52.902C92.33 52.8426 92.637 52.7831 92.9737 52.7237C93.0529 52.4266 93.2015 52.2286 93.4193 52.1296C93.6174 52.0503 93.8352 51.9909 94.0729 51.9513C94.2908 51.9117 94.4987 51.8523 94.6968 51.7731C94.875 51.7137 94.974 51.5552 94.9938 51.2977L95.2612 51.5354C95.281 51.2185 95.3701 50.9512 95.5286 50.7333C95.687 50.5352 95.8752 50.3471 96.093 50.1688C96.3109 49.9906 96.5486 49.8223 96.806 49.6638C97.0437 49.5054 97.2516 49.3271 97.4299 49.1291C97.3903 48.7528 97.4596 48.4359 97.6378 48.1784C97.8161 47.921 98.0141 47.6833 98.232 47.4654C98.4499 47.2476 98.6479 47.0099 98.8262 46.7524C98.9846 46.495 99.044 46.1682 99.0044 45.7721C99.2025 45.6929 99.3411 45.5641 99.4203 45.3859C99.4995 45.2076 99.5788 45.0393 99.658 44.8808C99.7372 44.7224 99.8362 44.6036 99.9551 44.5244C100.094 44.4451 100.302 44.4649 100.579 44.5838C100.302 44.3659 100.183 44.1976 100.222 44.0787C100.282 43.9599 100.381 43.851 100.52 43.7519C100.658 43.6727 100.787 43.5737 100.906 43.4549C101.025 43.336 101.025 43.1578 100.906 42.9201C101.381 42.7221 101.688 42.4349 101.827 42.0586C101.965 41.6823 102.064 41.2763 102.124 40.8406C102.203 40.4247 102.312 40.0088 102.451 39.5928C102.589 39.1967 102.896 38.8799 103.371 38.6422C103.332 38.2857 103.391 37.9688 103.55 37.6915C103.728 37.4341 103.896 37.1865 104.055 36.9488C104.233 36.7112 104.352 36.4636 104.411 36.2062C104.49 35.9487 104.421 35.6417 104.203 35.2852L103.817 36.0279ZM137.535 27.8285C137.12 28.7198 136.723 29.4229 136.347 29.9378C135.971 30.4527 135.545 30.8884 135.07 31.2449C134.614 31.5816 134.06 31.8985 133.406 32.1956C132.753 32.4927 131.931 32.869 130.94 33.3245C130.544 33.2255 130.158 33.1958 129.782 33.2354C129.405 33.2948 129.039 33.3344 128.683 33.3542C128.346 33.374 128.019 33.3344 127.702 33.2354C127.385 33.1561 127.098 32.9185 126.841 32.5224H126.395C126.415 32.2649 126.385 31.9876 126.306 31.6906C126.247 31.4133 126.058 31.2548 125.741 31.2152C125.94 30.9974 126.068 30.7597 126.128 30.5022C126.187 30.225 126.227 29.9477 126.247 29.6704C126.286 29.3931 126.336 29.1258 126.395 28.8683C126.454 28.6108 126.603 28.393 126.841 28.2147C126.603 27.8979 126.504 27.581 126.544 27.2641C126.603 26.9274 126.712 26.6006 126.87 26.2837C127.049 25.947 127.227 25.6202 127.405 25.3034C127.603 24.9667 127.702 24.63 127.702 24.2933C127.524 24.1745 127.356 24.016 127.197 23.818C127.059 23.6001 126.86 23.5407 126.603 23.6397C126.068 24.1547 125.534 24.6498 124.999 25.1251C124.464 25.5806 123.939 26.056 123.424 26.5511C122.929 27.0462 122.454 27.5711 121.998 28.1256C121.563 28.6604 121.157 29.2545 120.78 29.9081C120.444 29.9675 120.186 30.1259 120.008 30.3834C119.83 30.6409 119.671 30.9182 119.533 31.2152C119.394 31.4925 119.235 31.7599 119.057 32.0173C118.899 32.2748 118.671 32.4432 118.374 32.5224C118.275 32.8393 118.176 33.1561 118.077 33.473C117.958 33.8097 117.849 34.1365 117.75 34.4534C117.631 34.394 117.483 34.3445 117.304 34.3048C117.106 34.2652 116.918 34.2157 116.74 34.1563C116.562 34.0969 116.403 34.0177 116.265 33.9186C116.126 33.8394 116.037 33.7305 115.997 33.5919C115.977 33.5522 115.977 33.4631 115.997 33.3245C115.997 33.2057 115.997 33.1264 115.997 33.0868C116.037 32.5323 116.185 32.0074 116.443 31.5123C116.681 31.037 116.938 30.5716 117.215 30.116C117.493 29.6407 117.75 29.1654 117.988 28.6901C118.225 28.2147 118.354 27.6899 118.374 27.1155C118.671 27.1155 118.859 27.0264 118.938 26.8482C119.037 26.6699 119.107 26.4818 119.146 26.2837C119.206 26.0857 119.275 25.9074 119.354 25.749C119.434 25.5905 119.612 25.5311 119.889 25.5707C119.711 25.3331 119.632 25.0756 119.651 24.7983C119.691 24.5013 119.77 24.2141 119.889 23.9368C120.008 23.6397 120.156 23.3625 120.335 23.105C120.513 22.8277 120.661 22.5801 120.78 22.3623C120.76 22.085 120.78 21.8077 120.84 21.5305C120.919 21.2532 121.048 21.0056 121.226 20.7878C121.404 20.5699 121.563 20.362 121.701 20.1639C121.84 19.9659 121.978 19.7579 122.117 19.54C122.196 19.441 122.256 19.3321 122.295 19.2133C122.355 19.0944 122.414 18.9855 122.474 18.8865C122.652 18.629 122.771 18.3616 122.83 18.0844C122.89 17.7873 122.949 17.5001 123.008 17.2228C123.088 16.9257 123.187 16.6683 123.305 16.4504C123.444 16.2128 123.682 16.0246 124.018 15.886C124.018 15.6681 124.048 15.4701 124.108 15.2918C124.187 15.0938 124.266 14.8957 124.345 14.6977C124.424 14.4996 124.494 14.3115 124.553 14.1332C124.632 13.9352 124.672 13.7272 124.672 13.5093C124.731 13.4103 124.821 13.3113 124.939 13.2123C125.058 13.1132 125.167 13.0142 125.266 12.9152C125.365 12.8162 125.444 12.7171 125.504 12.6181C125.563 12.4993 125.573 12.3606 125.534 12.2022C125.553 11.9447 125.543 11.6774 125.504 11.4001C125.484 11.1228 125.563 10.8852 125.741 10.6871C125.702 10.4296 125.732 10.2217 125.831 10.0632C125.949 9.90479 126.088 9.76616 126.247 9.64732C126.405 9.52849 126.573 9.41956 126.752 9.32054C126.95 9.20171 127.118 9.07297 127.257 8.93434C127.158 8.7957 127.138 8.63726 127.197 8.45901C127.257 8.28076 127.336 8.11242 127.435 7.95398C127.554 7.77573 127.682 7.60738 127.821 7.44894C127.96 7.2905 128.059 7.15186 128.118 7.03303C128.237 6.79537 128.336 6.55771 128.415 6.32004C128.514 6.08238 128.623 5.86452 128.742 5.66647C128.861 5.44861 128.999 5.25056 129.158 5.07231C129.336 4.89407 129.564 4.74553 129.841 4.6267C129.762 4.23059 129.782 3.92361 129.901 3.70575C130.039 3.48789 130.217 3.29974 130.435 3.1413C130.673 2.98286 130.921 2.83432 131.178 2.69568C131.435 2.53724 131.643 2.31938 131.802 2.04211C132.02 1.9827 132.257 1.92328 132.515 1.86386C132.772 1.78464 133.03 1.73513 133.287 1.71533C133.545 1.67571 133.792 1.67571 134.03 1.71533C134.268 1.75494 134.485 1.86386 134.684 2.04211C134.763 2.12133 134.812 2.17085 134.832 2.19065C134.852 2.21046 134.862 2.23026 134.862 2.25007C134.862 2.25007 134.862 2.26987 134.862 2.30948C134.882 2.32929 134.931 2.3788 135.01 2.45802C135.09 2.53724 135.169 2.61646 135.248 2.69568C135.327 2.7551 135.406 2.83432 135.486 2.93335C135.505 3.07198 135.505 3.23043 135.486 3.40867C135.466 3.56712 135.456 3.72556 135.456 3.884C135.456 4.04244 135.476 4.19098 135.515 4.32962C135.575 4.46825 135.704 4.56728 135.902 4.6267C135.743 5.20105 135.674 5.81501 135.694 6.46858C135.713 7.12216 135.723 7.78563 135.723 8.45901C135.723 9.11258 135.674 9.74635 135.575 10.3603C135.476 10.9743 135.218 11.5189 134.802 11.9942L134.594 13.5093C134.337 13.5292 134.159 13.6183 134.06 13.7767C133.961 13.9154 133.891 14.0837 133.852 14.2817C133.812 14.4798 133.773 14.6878 133.733 14.9056C133.713 15.1235 133.644 15.3017 133.525 15.4404C133.366 15.6384 133.208 15.8662 133.05 16.1236C132.891 16.3811 132.723 16.6188 132.545 16.8366C132.366 17.0545 132.158 17.2426 131.921 17.4011C131.703 17.5397 131.445 17.609 131.148 17.609C131.109 17.7279 131.029 17.8665 130.911 18.0249C130.792 18.1834 130.653 18.3418 130.495 18.5003C130.356 18.6389 130.208 18.7676 130.049 18.8865C129.891 18.9855 129.752 19.0548 129.633 19.0944C129.475 19.1538 129.326 19.2034 129.188 19.243C129.069 19.2628 128.93 19.3222 128.772 19.4212C128.593 19.5202 128.415 19.649 128.237 19.8074C128.059 19.9659 127.871 20.1045 127.672 20.2233C127.474 20.3422 127.266 20.4313 127.049 20.4907C126.831 20.5303 126.613 20.5006 126.395 20.4016C126.138 20.7185 125.841 20.9165 125.504 20.9957C125.187 21.0551 124.87 21.1047 124.553 21.1443C124.256 21.1641 123.969 21.2334 123.692 21.3522C123.434 21.4512 123.236 21.6889 123.097 22.0652C123.058 22.1048 123.018 22.1939 122.979 22.3326C122.959 22.4514 122.949 22.5306 122.949 22.5702C122.949 22.7881 122.939 23.0555 122.919 23.3724C122.899 23.6892 122.979 23.9269 123.157 24.0853C123.87 23.7487 124.543 23.3525 125.177 22.897C125.831 22.4217 126.524 22.0256 127.257 21.7087L127.465 21.9464C127.524 21.5107 127.712 21.2928 128.029 21.2928C128.346 21.273 128.673 21.273 129.009 21.2928H129.217C129.257 21.2928 129.287 21.2928 129.306 21.2928C129.346 21.273 129.386 21.2631 129.425 21.2631C129.802 21.2631 130.049 21.4116 130.168 21.7087C130.287 22.0058 130.396 22.293 130.495 22.5702C130.277 22.8079 130.099 23.0951 129.96 23.4318C129.841 23.7487 129.722 24.0853 129.603 24.4418C129.504 24.7983 129.386 25.1548 129.247 25.5113C129.128 25.848 128.96 26.1649 128.742 26.462C128.92 26.561 128.999 26.6699 128.98 26.7888C128.96 26.9076 128.92 27.0264 128.861 27.1453C128.821 27.2641 128.811 27.3829 128.831 27.5017C128.851 27.6008 128.98 27.68 129.217 27.7394C129.019 27.878 128.881 28.0464 128.801 28.2444C128.742 28.4227 128.683 28.6207 128.623 28.8386C128.584 29.0367 128.534 29.2347 128.475 29.4328C128.415 29.611 128.296 29.7694 128.118 29.9081C128.197 30.0863 128.257 30.2646 128.296 30.4428C128.356 30.6013 128.366 30.7894 128.326 31.0073C128.603 31.3638 128.881 31.5618 129.158 31.6014C129.455 31.641 129.742 31.6212 130.019 31.542C130.297 31.4628 130.584 31.3836 130.881 31.3044C131.178 31.2251 131.485 31.2449 131.802 31.3638C132.356 30.9875 132.743 30.7597 132.96 30.6805C133.178 30.6013 133.347 30.5419 133.466 30.5022C133.604 30.4626 133.763 30.3735 133.941 30.2349C134.119 30.0962 134.456 29.7893 134.951 29.3139C135.446 29.1753 135.882 28.9475 136.258 28.6306C136.654 28.3138 137.08 28.0464 137.535 27.8285ZM133.109 3.55721C133.129 3.79488 133.069 3.98303 132.931 4.12166C132.812 4.24049 132.673 4.35932 132.515 4.47816C132.356 4.57718 132.198 4.68611 132.04 4.80494C131.901 4.90397 131.822 5.06241 131.802 5.28027C131.544 5.3991 131.376 5.55754 131.297 5.75559C131.218 5.95365 131.148 6.1616 131.089 6.37946C131.049 6.57751 130.98 6.77556 130.881 6.97362C130.782 7.17167 130.584 7.33011 130.287 7.44894L130.495 7.6569C129.841 8.25105 129.316 8.95414 128.92 9.76616C128.544 10.5782 128.207 11.3902 127.91 12.2022C127.633 12.4993 127.435 12.836 127.316 13.2123C127.197 13.5688 127.078 13.9352 126.96 14.3115C126.86 14.668 126.722 15.0145 126.544 15.3512C126.385 15.6681 126.118 15.9157 125.741 16.0939C125.94 16.3514 126.009 16.5891 125.949 16.8069C125.91 17.0248 125.811 17.2327 125.652 17.4308C125.494 17.6288 125.326 17.8269 125.147 18.0249C124.989 18.223 124.9 18.4409 124.88 18.6785C125.256 18.7577 125.623 18.7478 125.979 18.6488C126.355 18.5498 126.722 18.4111 127.078 18.2329C127.435 18.0348 127.772 17.817 128.088 17.5793C128.405 17.3417 128.712 17.1337 129.009 16.9555L129.217 17.1634C130.109 16.6683 130.841 16.0741 131.416 15.3809C132.01 14.668 132.574 13.8955 133.109 13.0637C132.931 12.9251 132.852 12.7766 132.871 12.6181C132.911 12.5191 132.96 12.4003 133.02 12.2616C133.079 12.123 133.129 12.0041 133.168 11.9051C133.366 11.311 133.515 10.7564 133.614 10.2415C133.872 9.172 134.05 8.10251 134.149 7.03303C134.268 5.94374 134.347 4.85446 134.386 3.76517L133.109 3.55721ZM157.44 9.88499C157.162 10.1821 156.856 10.3405 156.519 10.3603C156.182 10.3603 155.845 10.3306 155.509 10.2712C155.192 10.2118 154.875 10.192 154.558 10.2118C154.261 10.2118 154.004 10.3702 153.786 10.6871C153.469 10.6079 153.142 10.598 152.805 10.6574C152.469 10.697 152.122 10.7663 151.766 10.8653C151.409 10.9446 151.053 11.0238 150.696 11.103C150.34 11.1822 149.983 11.2119 149.627 11.1921L149.122 10.6871C148.983 10.905 148.785 11.0436 148.527 11.103C148.29 11.1426 148.052 11.0832 147.814 10.9248C147.399 11.202 146.983 11.3308 146.567 11.311C146.151 11.2912 145.745 11.2813 145.349 11.2813C144.953 11.2615 144.576 11.3407 144.22 11.5189C143.883 11.6774 143.596 12.0834 143.358 12.7369C143.18 13.1925 143.012 13.6579 142.853 14.1332C142.695 14.5887 142.536 15.0443 142.378 15.4998C141.942 16.6881 141.497 17.8665 141.041 19.035C140.605 20.1837 140.11 21.3225 139.556 22.4514C139.516 23.3426 139.536 24.2438 139.615 25.1548C139.694 26.0659 139.783 26.967 139.882 27.8582C139.803 28.0959 139.773 28.3435 139.793 28.6009C139.833 28.8584 139.902 29.1159 140.001 29.3733C140.1 29.6308 140.219 29.8784 140.358 30.116C140.496 30.3339 140.645 30.5319 140.803 30.7102L141.338 30.2052L142.081 31.2449C142.279 30.9875 142.507 30.7201 142.764 30.4428C143.041 30.1457 143.329 29.8784 143.626 29.6407C143.923 29.3832 144.23 29.1753 144.547 29.0168C144.883 28.8386 145.22 28.7198 145.557 28.6604C145.695 28.5217 145.824 28.3732 145.943 28.2147C146.062 28.0563 146.19 27.9276 146.329 27.8285C146.468 27.7097 146.616 27.6305 146.775 27.5909C146.953 27.5315 147.161 27.5414 147.399 27.6206C148.032 27.2641 148.597 26.8185 149.092 26.2837C149.587 25.7292 150.082 25.1845 150.577 24.6498C151.072 24.0952 151.587 23.5902 152.122 23.1347C152.677 22.6792 153.32 22.3623 154.053 22.184C153.578 23.3327 152.974 24.4517 152.241 25.541C151.508 26.6105 150.686 27.5711 149.775 28.4227C149.537 28.7 149.24 28.9475 148.884 29.1654C148.725 29.2644 148.557 29.3733 148.379 29.4922C148.201 29.5912 148.032 29.6902 147.874 29.7893C147.339 30.1457 146.824 30.5319 146.329 30.9479C145.834 31.344 145.359 31.7896 144.903 32.2847C144.844 32.1659 144.764 32.0867 144.665 32.0471C144.566 32.0074 144.448 31.9876 144.309 31.9876C144.19 31.9876 144.061 31.9975 143.923 32.0173C143.804 32.0371 143.695 32.0371 143.596 32.0173C143.22 32.2946 142.724 32.5125 142.111 32.6709C141.516 32.8492 140.982 32.8888 140.506 32.7897C140.368 32.7501 140.179 32.6709 139.942 32.5521C139.704 32.4531 139.526 32.3639 139.407 32.2847C138.635 31.7698 138.05 31.136 137.654 30.3834C137.278 29.611 137.07 28.7693 137.03 27.8582L136.793 27.6206C137.05 27.3829 137.209 27.1453 137.268 26.9076C137.347 26.6699 137.367 26.4323 137.328 26.1946C137.308 25.9371 137.258 25.6797 137.179 25.4222C137.12 25.1449 137.08 24.8677 137.06 24.5904C137.04 24.4121 137.04 24.2636 137.06 24.1448C137.1 24.0259 137.139 23.8873 137.179 23.7288C137.337 23.0951 137.486 22.4811 137.625 21.887C137.763 21.273 137.912 20.659 138.07 20.0451C138.466 18.5399 138.922 17.0545 139.437 15.5889C139.972 14.1035 140.526 12.6379 141.1 11.1921C140.784 11.0733 140.467 11.004 140.15 10.9842C139.833 10.9446 139.506 10.9248 139.169 10.9248C138.853 10.9248 138.526 10.9149 138.189 10.8951C137.872 10.8752 137.555 10.8059 137.238 10.6871C137.1 10.6277 137.03 10.598 137.03 10.598C137.03 10.5782 136.951 10.5683 136.793 10.5683C136.694 10.5683 136.555 10.5881 136.377 10.6277C136.199 10.6475 136.02 10.6574 135.842 10.6574C135.664 10.6574 135.505 10.6376 135.367 10.598C135.208 10.5584 135.119 10.4692 135.099 10.3306V10.0335C135.119 9.71664 135.189 9.50869 135.307 9.40966C135.426 9.29083 135.575 9.22151 135.753 9.20171C135.931 9.1621 136.129 9.14229 136.347 9.14229C136.565 9.12248 136.773 9.05317 136.971 8.93434C137.526 9.05317 138.05 9.14229 138.546 9.20171C139.041 9.24132 139.516 9.23141 139.972 9.172C140.447 9.11258 140.902 8.98385 141.338 8.7858C141.794 8.58774 142.239 8.29066 142.675 7.89456C142.992 7.2806 143.23 6.62702 143.388 5.93384C143.546 5.22085 143.725 4.52767 143.923 3.85429C144.141 3.16111 144.418 2.52734 144.755 1.95299C145.091 1.35883 145.606 0.8637 146.299 0.467595C146.616 0.427984 146.893 0.467595 147.131 0.586426C147.369 0.705258 147.606 0.833992 147.844 0.972629C147.745 1.2499 147.666 1.53708 147.606 1.83416C147.547 2.13124 147.478 2.42831 147.399 2.72539C147.339 3.02247 147.26 3.30965 147.161 3.58692C147.062 3.86419 146.913 4.12166 146.715 4.35932C146.973 4.45835 147.121 4.57718 147.161 4.71582C147.2 4.85446 147.181 5.00299 147.101 5.16144C147.022 5.31988 146.923 5.48822 146.804 5.66647C146.686 5.84472 146.616 6.00316 146.596 6.1418C146.379 6.1616 146.19 6.30024 146.032 6.55771C145.893 6.81517 145.745 7.01323 145.586 7.15186C145.428 7.48855 145.458 7.77573 145.675 8.01339C145.893 8.25105 146.091 8.47881 146.27 8.69667C146.448 8.75609 146.626 8.76599 146.804 8.72638C146.983 8.66696 147.141 8.60755 147.28 8.54813C147.438 8.48872 147.587 8.45901 147.725 8.45901C147.864 8.45901 147.993 8.53823 148.111 8.69667C148.31 8.47881 148.508 8.38969 148.706 8.4293C148.904 8.44911 149.102 8.49862 149.3 8.57784C149.498 8.63726 149.696 8.66696 149.894 8.66696C150.092 8.64716 150.28 8.48872 150.458 8.19164C150.696 8.07281 150.914 8.0431 151.112 8.10251C151.33 8.16193 151.528 8.24115 151.706 8.34018C151.884 8.4194 152.053 8.48872 152.211 8.54813C152.389 8.58774 152.568 8.54813 152.746 8.4293C153.043 8.46891 153.37 8.47881 153.726 8.45901C154.103 8.4392 154.469 8.39959 154.825 8.34018C155.202 8.28076 155.568 8.21144 155.925 8.13222C156.301 8.0332 156.638 7.95398 156.935 7.89456C157.232 8.07281 157.41 8.23125 157.469 8.36989C157.529 8.50852 157.539 8.64716 157.499 8.7858C157.479 8.92443 157.44 9.08287 157.38 9.26112C157.341 9.41956 157.361 9.62752 157.44 9.88499Z" fill="#F50057"/>
</svg>
