<svg width="31" height="30" viewBox="0 0 31 30" fill="none" xmlns="http://www.w3.org/2000/svg">
<path fill-rule="evenodd" clip-rule="evenodd" d="M6.54012 9.97968C6.93294 10.0813 7.35647 9.91467 7.48604 9.60728C8.66158 6.82523 11.9688 4.95618 15.716 4.95618C20.4944 4.95618 24.3823 7.99825 24.3823 11.7377C24.3823 14.6278 22.7279 16.3545 21.3988 17.742C20.4319 18.7511 19.5968 19.6229 19.5968 20.6801C19.5968 20.7497 19.5956 20.8186 19.5936 20.887H16.4648V19.541C16.4648 19.2173 16.1296 18.955 15.716 18.955C15.3024 18.955 14.9672 19.2173 14.9672 19.541V20.887H11.8381C11.836 20.8186 11.8349 20.7497 11.8349 20.6801C11.8349 19.6227 10.9998 18.7511 10.0328 17.7417C9.05382 16.7198 7.94438 15.5614 7.3942 13.9155C7.28949 13.6024 6.88 13.415 6.48016 13.4969C6.08032 13.5786 5.84076 13.899 5.94548 14.2119C6.56995 16.0803 7.82563 17.3913 8.83474 18.4446C9.6742 19.321 10.3373 20.0132 10.3373 20.6801C10.3373 20.9607 10.3525 21.2345 10.382 21.4956V26.4518C10.382 26.4676 10.3835 26.483 10.385 26.4983C10.3855 26.502 10.3853 26.5059 10.3858 26.5095C10.3885 26.5313 10.3929 26.5523 10.3984 26.5734V26.5738C10.6584 27.5283 11.3242 28.3962 12.2736 29.0176C13.2412 29.6512 14.4638 30 15.716 30C16.9681 30 18.1905 29.6512 19.1583 29.0176C20.1075 28.3962 20.7735 27.5283 21.0332 26.5738C21.0332 26.5736 21.0335 26.5734 21.0335 26.5732C21.0391 26.5523 21.0432 26.5313 21.0461 26.5095C21.0464 26.5059 21.0464 26.502 21.0467 26.4983C21.0481 26.4827 21.0496 26.4674 21.0496 26.4516V21.4956C21.0791 21.2345 21.0946 20.9607 21.0946 20.6801C21.0946 20.0132 21.7577 19.321 22.5972 18.4446C23.9824 16.9986 25.8799 15.0183 25.8799 11.7377C25.8799 7.35211 21.3202 3.7843 15.716 3.7843C11.3215 3.7843 7.44305 5.97653 6.06423 9.23947C5.93436 9.54663 6.14759 9.87805 6.54012 9.97968ZM15.716 28.8281C14.1935 28.8281 12.8206 28.1076 12.1701 27.0376H19.2619C18.6111 28.1076 17.2381 28.8281 15.716 28.8281ZM19.5523 25.8657H11.8796V24.5482H19.5523V25.8657ZM19.5523 23.3764H11.8796V22.0589H19.5523V23.3764Z" fill="white"/>
<path fill-rule="evenodd" clip-rule="evenodd" d="M15.7156 2.73308C16.1292 2.73308 16.4644 2.47078 16.4644 2.14714V0.585938C16.4644 0.262299 16.1292 0 15.7156 0C15.302 0 14.9668 0.262299 14.9668 0.585938V2.14714C14.9668 2.47078 15.302 2.73308 15.7156 2.73308Z" fill="white"/>
<path fill-rule="evenodd" clip-rule="evenodd" d="M1.46461 12.3237H3.45971C3.8733 12.3237 4.2085 12.0614 4.2085 11.7378C4.2085 11.4142 3.8733 11.1519 3.45971 11.1519H1.46461C1.05102 11.1519 0.71582 11.4142 0.71582 11.7378C0.71582 12.0614 1.05102 12.3237 1.46461 12.3237Z" fill="white"/>
<path fill-rule="evenodd" clip-rule="evenodd" d="M19.1443 12.9215C19.1443 12.5979 18.8091 12.3356 18.3955 12.3356H13.0364C12.6228 12.3356 12.2876 12.5979 12.2876 12.9215C12.2876 13.2451 12.6228 13.5074 13.0364 13.5074H14.9671V14.8535C14.9671 15.1771 15.3023 15.4394 15.7159 15.4394C16.1295 15.4394 16.4647 15.1771 16.4647 14.8535V13.5074H18.3955C18.8091 13.5074 19.1443 13.2451 19.1443 12.9215Z" fill="white"/>
<path fill-rule="evenodd" clip-rule="evenodd" d="M6.51979 5.37047C6.66604 5.48491 6.85763 5.54213 7.04921 5.54213C7.24079 5.54213 7.43238 5.48491 7.57862 5.37047C7.87112 5.14159 7.87112 4.77057 7.57862 4.54192L6.16792 3.43802C5.87543 3.20914 5.40129 3.20914 5.1088 3.43802C4.8166 3.66667 4.8166 4.03769 5.1088 4.26657L6.51979 5.37047Z" fill="white"/>
<path fill-rule="evenodd" clip-rule="evenodd" d="M5.12239 20.6133C5.31398 20.6133 5.50556 20.5561 5.65181 20.4416L7.06251 19.3377C7.35501 19.1089 7.35501 18.7381 7.06251 18.5092C6.77002 18.2803 6.29588 18.2803 6.00368 18.5092L4.59269 19.6131C4.30048 19.842 4.30048 20.213 4.59269 20.4416C4.73893 20.5561 4.93052 20.6133 5.12239 20.6133Z" fill="white"/>
<path fill-rule="evenodd" clip-rule="evenodd" d="M24.3821 5.54215C24.5737 5.54215 24.7653 5.48493 24.9115 5.37049L26.3222 4.26659C26.6147 4.03771 26.6147 3.66669 26.3222 3.43781C26.03 3.20893 25.5559 3.20916 25.2634 3.43781L23.8527 4.54171C23.5602 4.77059 23.5602 5.14161 23.8524 5.37049C23.9987 5.48493 24.1905 5.54215 24.3821 5.54215Z" fill="white"/>
<path fill-rule="evenodd" clip-rule="evenodd" d="M24.3693 18.5092C24.0768 18.7378 24.0768 19.1089 24.3693 19.3377L25.78 20.4416C25.9262 20.5561 26.1178 20.6133 26.3094 20.6133C26.501 20.6133 26.6926 20.5561 26.8388 20.4416C27.1313 20.213 27.1313 19.842 26.8388 19.6131L25.4281 18.5092C25.1356 18.2803 24.6615 18.2803 24.3693 18.5092Z" fill="white"/>
<path fill-rule="evenodd" clip-rule="evenodd" d="M27.9719 12.3237H29.967C30.3806 12.3237 30.7158 12.0614 30.7158 11.7378C30.7158 11.4142 30.3806 11.1519 29.967 11.1519H27.9719C27.5583 11.1519 27.2231 11.4142 27.2231 11.7378C27.2231 12.0614 27.5583 12.3237 27.9719 12.3237Z" fill="white"/>
<path fill-rule="evenodd" clip-rule="evenodd" d="M15.7156 16.6113C15.3032 16.6113 14.9668 16.8745 14.9668 17.1973C14.9668 17.52 15.3032 17.7832 15.7156 17.7832C16.128 17.7832 16.4644 17.52 16.4644 17.1973C16.4644 16.8745 16.128 16.6113 15.7156 16.6113Z" fill="white"/>
<path fill-rule="evenodd" clip-rule="evenodd" d="M7.04933 11.7378C7.04933 11.4151 6.71296 11.1519 6.30054 11.1519C5.88783 11.1519 5.55176 11.4151 5.55176 11.7378C5.55176 12.0605 5.88783 12.3237 6.30054 12.3237C6.71296 12.3237 7.04933 12.0605 7.04933 11.7378Z" fill="white"/>
</svg>
