<svg width="142" height="149" viewBox="0 0 142 149" fill="none" xmlns="http://www.w3.org/2000/svg">
<path d="M35.0151 78.136L25.1619 102.811L32.0592 107.333L44.3213 82.6576L35.0151 78.136Z" fill="#FFB8B8"/>
<path opacity="0.1" d="M35.0151 78.136L25.1619 102.811L32.0592 107.333L44.3213 82.6576L35.0151 78.136Z" fill="black"/>
<path d="M25.5998 99.4521L13.7757 128.132L7.09728 136.013C7.09728 136.013 -2.09926 136.142 1.51366 140.276C5.12659 144.41 16.2938 139.501 16.2938 139.501L15.9654 141.051L23.1912 140.276L22.9723 137.176L22.3154 136.788C22.3154 136.788 22.7533 130.845 21.6585 129.683C20.5636 128.52 23.6292 127.099 23.6292 127.099L36.2197 101.261L25.5998 99.4521Z" fill="#2F2E41"/>
<path d="M28.9937 76.327C28.9937 76.327 18.4834 83.5616 21.2205 90.1503C23.9575 96.739 24.8334 97.2558 24.8334 97.2558L30.417 92.4757L29.4316 89.7628L40.3799 82.2697C40.3799 82.2697 31.9497 74.6475 28.9937 76.327Z" fill="#FFB8B8"/>
<path d="M22.4248 96.3515L37.4239 124.644L38.9567 132.525C38.9567 132.525 33.4826 140.664 37.5334 141.18C41.5843 141.697 46.1825 134.075 46.4015 130.587C46.6205 127.099 46.9489 124.902 46.9489 124.902L48.0437 125.419C48.0437 125.419 51.3282 119.218 49.686 118.443C48.7216 117.985 47.7344 117.597 46.7299 117.28C46.7299 117.28 44.3213 115.472 42.0222 116.118C42.0222 116.118 42.4601 114.051 42.0222 113.146C41.5843 112.242 29.8922 89.4476 29.8922 89.4476L22.4248 96.3515Z" fill="#2F2E41"/>
<path d="M48.2625 20.2587C51.5881 20.2587 54.284 17.0775 54.284 13.1533C54.284 9.22907 51.5881 6.04785 48.2625 6.04785C44.9369 6.04785 42.241 9.22907 42.241 13.1533C42.241 17.0775 44.9369 20.2587 48.2625 20.2587Z" fill="#FFB8B8"/>
<path d="M46.6207 17.6748C46.6207 17.6748 48.8103 25.0386 48.2629 27.1057C47.7155 29.1727 43.3362 38.862 43.3362 38.862L43.8836 43.3836L54.8319 23.4884C54.8319 23.4884 52.0948 19.2251 52.8612 16.2537L46.6207 17.6748Z" fill="#FFB8B8"/>
<path d="M50.6714 72.7096L47.4964 88.0832C47.4964 88.0832 31.7309 76.9729 27.3516 77.3605C27.3516 77.3605 36.8766 64.5706 40.4895 64.5706C44.1024 64.5706 50.6714 72.7096 50.6714 72.7096Z" fill="#2F2E41"/>
<path d="M58.5541 24.5218C58.5541 24.5218 56.036 19.7418 52.9705 23.8759C49.905 28.0099 44.3214 38.8619 44.3214 38.8619L44.7125 35.7734C44.7125 35.7734 41.2559 38.8619 41.0369 42.8668C40.8179 46.8717 39.9421 60.3074 39.9421 60.3074L38.5188 65.9918L52.0946 75.2935L54.2843 70.901C54.2843 70.901 62.4955 72.7097 63.3714 71.547C64.2472 70.3842 58.2714 51.4941 58.2714 51.4941L58.5541 24.5218Z" fill="#575A89"/>
<path d="M46.6206 51.3934L40.0516 62.1162C40.0516 62.1162 32.1689 65.7335 33.4827 68.7049C34.7965 71.6763 41.4749 64.1832 41.4749 64.1832L51.3283 53.9772L46.6206 51.3934Z" fill="#FFB8B8"/>
<path opacity="0.1" d="M53.08 25.6848C53.08 25.6848 48.2628 34.7281 48.0438 41.5752C47.8248 48.4222 47.8796 47.7117 47.8796 47.7117L45.4709 51.7166L51.164 55.4631L54.0653 51.9104C54.0653 51.9104 60.5248 49.7141 59.7584 43.3838C58.992 37.0535 58.5541 25.2972 57.4593 25.2972C56.3645 25.2972 53.08 25.6848 53.08 25.6848Z" fill="black"/>
<path d="M53.299 24.3927C53.299 24.3927 48.4818 33.436 48.2628 40.2831C48.0439 47.1302 48.5913 47.2594 48.5913 47.2594L45.6353 51.9102L51.1094 55.3983L54.2844 50.6183C54.2844 50.6183 60.7438 48.4221 59.9775 42.0918C59.2111 35.7614 58.7732 24.0052 57.6783 24.0052C56.5835 24.0052 53.299 24.3927 53.299 24.3927Z" fill="#575A89"/>
<path d="M41.2517 11.7491C41.2517 11.7491 39.3975 1.17896 49.109 3.82369C49.109 3.82369 55.788 1.74577 58.6574 11.5438L61.586 21.8217L60.4441 21.2166L60.0185 22.5809L58.2765 23.2721L57.4009 21.5603L57.1733 23.7555L42.7344 26.78C42.7344 26.78 48.9563 21.6444 48.5314 13.4848L47.3905 15.1446L41.2517 11.7491Z" fill="#2F2E41"/>
<path d="M124.185 33.7992H123.154C122.926 33.7992 122.741 34.017 122.741 34.2857V51.3745C122.741 51.6432 122.926 51.861 123.154 51.861H124.185C124.413 51.861 124.598 51.6432 124.598 51.3745V34.2857C124.598 34.017 124.413 33.7992 124.185 33.7992Z" fill="#3F3D56"/>
<path d="M61.7943 19.6487H61.292C61.1429 19.6487 61.022 19.7913 61.022 19.9673V25.2762C61.022 25.4522 61.1429 25.5949 61.292 25.5949H61.7943C61.9435 25.5949 62.0644 25.4522 62.0644 25.2762V19.9673C62.0644 19.7913 61.9435 19.6487 61.7943 19.6487Z" fill="#3F3D56"/>
<path d="M61.8537 30.5363H61.2884C61.1204 30.5363 60.9841 30.697 60.9841 30.8953V40.5274C60.9841 40.7257 61.1204 40.8864 61.2884 40.8864H61.8537C62.0217 40.8864 62.158 40.7257 62.158 40.5274V30.8953C62.158 30.697 62.0217 30.5363 61.8537 30.5363Z" fill="#3F3D56"/>
<path d="M61.8301 44.5063H61.2918C61.1317 44.5063 61.002 44.6594 61.002 44.8483V54.6036C61.002 54.7925 61.1317 54.9456 61.2918 54.9456H61.8301C61.9902 54.9456 62.12 54.7925 62.12 54.6036V44.8483C62.12 44.6594 61.9902 44.5063 61.8301 44.5063Z" fill="#3F3D56"/>
<path d="M117.317 0H68.038C64.4893 0 61.6125 3.39459 61.6125 7.58203V141.418C61.6125 145.605 64.4893 149 68.038 149H117.317C120.866 149 123.742 145.605 123.742 141.418V7.58203C123.742 3.39459 120.866 0 117.317 0Z" fill="#3F3D56"/>
<path d="M119.906 9.70205V139.291C119.905 140.835 119.385 142.316 118.46 143.407C117.534 144.499 116.279 145.112 114.971 145.112H70.3837C69.0753 145.112 67.8204 144.499 66.895 143.407C65.9696 142.316 65.4495 140.835 65.449 139.291V9.70205C65.449 8.93736 65.5766 8.18015 65.8246 7.47367C66.0726 6.76719 66.4361 6.12527 66.8943 5.58455C67.3526 5.04383 67.8966 4.61491 68.4953 4.32228C69.094 4.02965 69.7357 3.87903 70.3837 3.87903H77.0558V4.89025C77.0577 6.16063 77.4866 7.37825 78.2484 8.27595C79.0101 9.17365 80.0426 9.67812 81.1192 9.67868H103.803C104.337 9.67868 104.865 9.55466 105.358 9.3137C105.851 9.07274 106.299 8.71955 106.677 8.27431C107.054 7.82907 107.353 7.3005 107.558 6.71877C107.762 6.13703 107.867 5.51354 107.867 4.88388V3.87903H114.98C116.287 3.88184 117.54 4.49658 118.464 5.5883C119.387 6.68002 119.906 8.15952 119.906 9.70205Z" fill="white"/>
<path opacity="0.2" d="M120.296 63.214V107.281H119.906V107.325H65.449V53.4885C65.7982 53.0183 66.1523 52.5304 66.5112 52.0248C74.159 41.2476 84.5542 38.4115 92.5999 38.1141C98.1126 37.9017 103.6 39.2464 108.839 41.9168C111.606 43.3274 115.578 44.874 119.906 45.0269V61.6866C120.17 62.5767 120.296 63.214 120.296 63.214Z" fill="#F50057"/>
<path opacity="0.2" d="M120.296 63.214V107.281H65.449V78.4142C67.4023 77.8342 70.1299 75.6036 73.6297 69.4406C77.8155 62.0668 83.5028 60.1272 87.9047 59.9233C90.9202 59.7831 93.9232 60.6965 96.7894 62.5257C100.014 64.58 106.229 67.057 110.951 59.8659C116.172 51.9142 118.948 58.4723 119.906 61.6865C120.17 62.5767 120.296 63.214 120.296 63.214Z" fill="#F50057"/>
<path d="M112.375 99.2102H73.1275C71.9343 99.2102 70.967 100.352 70.967 101.759V112.806C70.967 114.214 71.9343 115.356 73.1275 115.356H112.375C113.568 115.356 114.535 114.214 114.535 112.806V101.759C114.535 100.352 113.568 99.2102 112.375 99.2102Z" fill="#736E9E"/>
<path d="M122.277 124.916H63.5857V146.372H122.277V124.916Z" fill="#3F3D56"/>
<path d="M90.4109 131.849V139.434L95.4518 135.642L90.4109 131.849Z" fill="white"/>
<path d="M141 51.8994L139.607 52.9425L140.453 51.1261C140.213 50.9008 139.917 50.776 139.611 50.7713H139.587C139.491 50.7732 139.394 50.7654 139.299 50.7479L138.818 51.1048L139.022 50.6693C138.687 50.5323 138.398 50.2735 138.195 49.93L137.349 50.5674L137.889 49.4223C137.665 49.0799 137.378 48.8008 137.05 48.6053C136.723 48.4099 136.362 48.3029 135.995 48.2921C135.117 48.2921 134.334 48.9082 133.835 49.8706C133.685 50.1594 133.472 50.3961 133.219 50.5562C132.966 50.7163 132.682 50.7942 132.395 50.7819H132.348C131.378 50.7819 130.591 52.0821 130.591 53.6818C130.591 55.2814 131.378 56.5837 132.348 56.5837C132.561 56.5826 132.771 56.5207 132.96 56.4031C133.29 56.2134 133.651 56.1106 134.018 56.1018C134.386 56.093 134.75 56.1784 135.086 56.3521C135.369 56.5032 135.676 56.5821 135.986 56.5837C136.296 56.5824 136.603 56.5058 136.887 56.3585C137.22 56.1877 137.581 56.1035 137.945 56.1116C138.309 56.1196 138.667 56.2198 138.995 56.4053C139.181 56.5214 139.389 56.5826 139.6 56.5837C140.57 56.5837 141.357 55.2836 141.357 53.6818C141.367 53.0616 141.245 52.4485 141 51.8994Z" fill="#F2F2F2"/>
<path opacity="0.03" d="M138.367 56.1439C137.86 56.0291 137.335 56.0965 136.861 56.3372C136.578 56.4862 136.271 56.5632 135.961 56.5632C135.651 56.5632 135.344 56.4862 135.061 56.3372C134.725 56.1637 134.361 56.0782 133.993 56.0867C133.626 56.0951 133.265 56.1972 132.935 56.3861C132.746 56.5045 132.536 56.5672 132.323 56.5688C131.46 56.5688 130.744 55.5427 130.594 54.1915C130.766 54.0432 130.913 53.8571 131.025 53.6434C131.531 52.6811 132.314 52.065 133.185 52.065C134.057 52.065 134.838 52.6747 135.346 53.6243C135.497 53.9131 135.709 54.1505 135.962 54.3132C136.214 54.476 136.498 54.5585 136.786 54.5527H136.807C137.483 54.5463 138.079 55.1964 138.367 56.1439Z" fill="black"/>
</svg>
