<svg width="31" height="30" viewBox="0 0 31 30" fill="none" xmlns="http://www.w3.org/2000/svg">
<path d="M26.0492 15.4021V12.5977C26.0492 8.50652 22.9551 5.039 18.7158 3.90645V2.63672C18.7158 1.18283 17.37 0 15.7159 0C14.0617 0 12.7159 1.18283 12.7159 2.63672V3.90645C8.47654 5.039 5.38255 8.50646 5.38255 12.5977V15.4021C5.38255 18.9957 3.82402 22.4033 0.994097 24.9971C0.716765 25.2513 0.638832 25.6264 0.796031 25.9503C0.953231 26.2742 1.31523 26.4844 1.7159 26.4844H10.8165C11.281 28.4878 13.3013 30 15.7159 30C18.1305 30 20.1506 28.4878 20.6152 26.4844H29.7158C30.1165 26.4844 30.4784 26.2742 30.6356 25.9503C30.7928 25.6264 30.7149 25.2513 30.4376 24.9971C27.6077 22.4033 26.0492 18.9957 26.0492 15.4021ZM14.7159 2.63672C14.7159 2.15209 15.1645 1.75781 15.7159 1.75781C16.2673 1.75781 16.7158 2.15209 16.7158 2.63672V3.55828C16.3867 3.53039 16.0532 3.51562 15.7159 3.51562C15.3785 3.51562 15.045 3.53039 14.7159 3.55828V2.63672ZM15.7159 28.2422C14.4122 28.2422 13.3007 27.5074 12.8879 26.4844H18.5438C18.131 27.5074 17.0195 28.2422 15.7159 28.2422ZM3.87122 24.7266C6.14861 22.0434 7.38254 18.7964 7.38254 15.4021V12.5977C7.38254 8.55908 11.1209 5.27344 15.7159 5.27344C20.3108 5.27344 24.0492 8.55908 24.0492 12.5977V15.4021C24.0492 18.7964 25.2831 22.0434 27.5605 24.7266H3.87122Z" fill="white"/>
<path d="M28.7157 12.5973C28.7157 13.0826 29.1635 13.4762 29.7157 13.4762C30.268 13.4762 30.7157 13.0826 30.7157 12.5973C30.7157 9.07577 29.1555 5.76505 26.3223 3.27499C25.9319 2.9318 25.2987 2.93175 24.9081 3.27499C24.5176 3.61823 24.5176 4.17469 24.9081 4.51794C27.3635 6.676 28.7157 9.54528 28.7157 12.5973Z" fill="white"/>
<path d="M1.71582 13.4761C2.26808 13.4761 2.71581 13.0826 2.71581 12.5972C2.71581 9.5453 4.06808 6.67603 6.5234 4.51796C6.91393 4.17472 6.91393 3.61825 6.5234 3.27501C6.13294 2.93177 5.49974 2.93177 5.10921 3.27501C2.27608 5.76507 0.71582 9.07573 0.71582 12.5972C0.71582 13.0826 1.16355 13.4761 1.71582 13.4761Z" fill="white"/>
</svg>
