<svg width="31" height="30" viewBox="0 0 31 30" fill="none" xmlns="http://www.w3.org/2000/svg">
<path d="M28.896 13.4806C28.874 13.452 28.8512 13.4238 28.8255 13.3966L16.8331 0.443672C16.5758 0.165176 16.1593 0 15.7157 0C15.2717 0 14.8557 0.165176 14.5984 0.443672L2.60594 13.3966C2.58124 13.4238 2.55746 13.4517 2.53588 13.4806C0.072363 16.7569 0.111726 20.7339 2.64158 24.1196C5.35138 27.7468 10.3612 30 15.7157 30C21.0702 30 26.08 27.7465 28.7902 24.1193C31.3196 20.7339 31.3594 16.7566 28.896 13.4806ZM26.4105 23.0623C24.1896 26.0354 20.0916 27.8824 15.7157 27.8824C11.3403 27.8824 7.24223 26.0358 5.0209 23.0626C2.96796 20.3146 2.9172 17.2278 4.87948 14.585L15.7157 2.88105L26.5519 14.5853C28.5138 17.2281 28.4634 20.3149 26.4105 23.0623Z" fill="white"/>
</svg>
