<svg width="493" height="344" viewBox="0 0 493 344" fill="none" xmlns="http://www.w3.org/2000/svg">
<g clip-path="url(#clip0)">
<path opacity="0.1" d="M286.366 54.9932C254.83 53.8985 224.794 43.7151 196.11 32.5765C167.426 21.4379 139.017 9.09562 108.231 3.19487C88.4358 -0.603759 65.7924 -1.14019 49.839 9.47504C34.4874 19.689 29.5287 37.3215 26.8597 53.6848C24.8535 65.9966 23.676 78.9494 29.1711 90.4762C32.9872 98.4746 39.7645 105.2 44.4354 112.862C60.742 139.531 49.2328 172.411 31.5436 198.451C23.2573 210.663 13.6364 222.316 7.24284 235.317C0.849278 248.318 -2.09891 263.216 3.52271 276.5C9.0702 289.645 22.276 299.519 36.6114 306.466C65.6746 320.548 99.9495 324.587 133.37 326.872C207.354 331.931 281.734 329.742 355.914 327.548C383.364 326.733 410.94 325.913 437.945 321.665C452.943 319.31 468.425 315.559 479.315 306.536C493.136 295.07 496.564 275.654 487.301 261.275C471.766 237.157 428.812 231.183 417.957 205.286C411.978 191.042 418.119 175.171 426.806 161.961C445.437 133.613 476.668 108.754 478.312 76.3545C479.446 54.1122 464.431 31.8176 441.216 21.2896C416.88 10.2557 383.142 11.6426 365.186 29.9118C346.699 48.7217 314.212 55.957 286.366 54.9932Z" fill="#F50057"/>
<path d="M394.062 298.106C392.292 297.533 390.422 297.334 388.571 297.521C386.316 297.765 386.635 301.198 388.898 301.036C390.03 300.949 391.15 300.743 392.239 300.421L394.062 298.106Z" fill="#F50057"/>
<path d="M394.746 298.136C395.561 299.81 396.019 301.636 396.09 303.496C396.164 305.764 392.719 305.925 392.561 303.662C392.493 302.529 392.543 301.392 392.71 300.269L394.746 298.136Z" fill="#F50057"/>
<path d="M399.875 290.792C399.875 290.792 398.772 287.329 392.025 288.672C388.972 289.278 389.055 293.657 392.112 294.119H392.243C396.696 294.739 398.244 292.972 399.875 290.792Z" fill="#F50057"/>
<path d="M400.578 290.587C400.578 290.587 404.202 290.87 404.429 297.739C404.533 300.831 400.255 301.769 399.108 298.899C399.108 298.856 399.077 298.816 399.06 298.773C397.459 294.582 398.824 292.671 400.578 290.587Z" fill="#F50057"/>
<path d="M405.419 281.733C405.164 280.477 404.579 279.311 403.723 278.355C402.868 277.4 401.773 276.69 400.551 276.299C395.985 274.86 393.574 281.69 398.035 283.426C399.881 284.1 401.847 284.385 403.809 284.263L405.419 281.733Z" fill="#F50057"/>
<path d="M410.988 270.329C410.988 270.329 409.143 265.968 404.359 265.095C399.286 264.166 397.751 271.786 402.762 273.002C405.011 273.491 407.336 273.51 409.592 273.059L410.988 270.329Z" fill="#F50057"/>
<path d="M414.35 259.099C413.569 257.871 412.549 256.814 411.35 255.989C410.151 255.165 408.798 254.591 407.372 254.301C403.011 253.481 401.541 260.01 405.824 261.127C408.514 261.784 411.327 261.745 413.997 261.013L414.35 259.099Z" fill="#F50057"/>
<path d="M417.521 248.152C416.129 245.858 413.964 244.136 411.415 243.298C407.054 241.959 404.9 248.571 409.235 250.01C411.805 250.863 414.583 250.852 417.146 249.979L417.521 248.152Z" fill="#F50057"/>
<path d="M418.855 238.178C418.855 238.178 417.111 234.087 413.557 231.924C409.597 229.512 405.824 235.413 409.631 238.069C411.978 239.713 414.983 240.847 418.493 240.088L418.855 238.178Z" fill="#F50057"/>
<path d="M419.514 226.346C419.514 226.346 417.591 222.216 413.901 220.24C409.775 218.06 406.186 224.087 410.072 226.686C412.615 228.383 415.79 229.482 419.161 228.156L419.514 226.346Z" fill="#F50057"/>
<path d="M419.104 215.556C417.665 213.323 415.901 211.317 413.871 209.603C410.983 207.244 407.329 211.492 410.063 214.012C412.588 216.328 415.733 218.273 418.982 218.116L419.104 215.556Z" fill="#F50057"/>
<path d="M418.009 205.203C416.361 202.422 414.374 199.855 412.096 197.562C409.836 195.381 406.496 198.704 408.607 201.003C411.045 203.619 414.333 206.332 418.284 207.518L418.009 205.203Z" fill="#F50057"/>
<path d="M415.894 193.026C414.535 190.913 412.951 188.952 411.171 187.178C408.894 184.949 405.462 188.303 407.647 190.619C409.967 193.083 412.968 195.39 416.487 196.175L415.894 193.026Z" fill="#F50057"/>
<path d="M414.045 181.665C412.647 179.773 411.131 177.971 409.505 176.27C407.682 174.391 404.769 177.033 406.487 179.013C408.507 181.342 411.097 183.405 414.076 183.737L414.045 181.665Z" fill="#F50057"/>
<path d="M412.126 171.128C410.851 168.633 409.393 166.235 407.765 163.954C406.4 162.087 403.556 164.085 404.843 166.004C406.526 168.52 408.864 171.011 411.934 172.21L412.126 171.128Z" fill="#F50057"/>
<path d="M410.543 157.124C410.543 157.124 409.466 155.297 407.926 153.173C406.504 151.215 403.504 153.239 404.821 155.267C406.304 157.539 408.162 159.475 410.325 159.859L410.543 157.124Z" fill="#F50057"/>
<path d="M409.789 147.844L408.424 141.018C408.062 139.213 405.371 139.645 405.589 141.454C406.077 145.1 407.333 148.768 410.068 151.176L409.789 147.844Z" fill="#F50057"/>
<path d="M410.6 128.445C410.472 128.143 410.239 127.898 409.944 127.757C409.648 127.616 409.312 127.588 408.997 127.678C408.682 127.768 408.411 127.97 408.236 128.247C408.06 128.523 407.992 128.854 408.044 129.178C408.347 131.073 408.808 132.941 409.422 134.76L410.6 128.445Z" fill="#F50057"/>
<path d="M405.724 281.598C406.942 281.196 408.246 281.126 409.5 281.396C410.754 281.666 411.914 282.266 412.859 283.133C416.348 286.391 411.629 291.856 407.909 288.851C406.409 287.58 405.188 286.013 404.319 284.25L405.724 281.598Z" fill="#F50057"/>
<path d="M411.298 269.915C411.298 269.915 415.886 268.807 419.436 272.13C423.199 275.654 417.996 281.424 414.032 278.122C412.3 276.607 410.9 274.749 409.919 272.666L411.298 269.915Z" fill="#F50057"/>
<path d="M414.651 259.866C415.837 259.017 417.183 258.416 418.607 258.1C420.031 257.784 421.504 257.759 422.938 258.026C427.299 258.898 426.213 265.496 421.821 264.934C419.081 264.536 416.488 263.448 414.285 261.772L414.651 259.866Z" fill="#F50057"/>
<path d="M417.739 248.213C419.883 246.604 422.531 245.814 425.205 245.985C429.767 246.381 429.279 253.311 424.713 253.024C422.009 252.855 419.436 251.806 417.386 250.036L417.739 248.213Z" fill="#F50057"/>
<path d="M418.799 238.461C418.799 238.461 421.219 234.728 425.083 233.202C429.37 231.505 432.122 237.929 427.957 239.905C425.341 241.139 422.187 241.763 418.838 240.406L418.799 238.461Z" fill="#F50057"/>
<path d="M418.951 226.167C418.951 226.167 421.398 222.329 425.31 220.864C429.671 219.228 432.458 225.683 428.267 227.755C425.524 229.107 422.231 229.778 419.065 228.025L418.951 226.167Z" fill="#F50057"/>
<path d="M418.132 215.443C419.059 212.954 420.353 210.616 421.969 208.508C424.281 205.582 428.777 208.945 426.632 211.997C424.66 214.802 422.026 217.37 418.781 217.916L418.132 215.443Z" fill="#F50057"/>
<path d="M417.796 205.185C418.598 202.046 419.787 199.02 421.337 196.175C422.903 193.462 427.033 195.708 425.628 198.508C424.023 201.714 421.616 205.224 418.153 207.47L417.796 205.185Z" fill="#F50057"/>
<path d="M415.266 192.459C416.208 190.04 417.416 187.733 418.868 185.581C420.665 182.965 424.647 185.529 423.003 188.233C421.215 191.181 418.694 194.147 415.314 195.647L415.266 192.459Z" fill="#F50057"/>
<path d="M413.251 181.604C413.738 179.303 414.368 177.035 415.14 174.813C416.012 172.341 419.767 173.536 419.025 176.052C418.153 179.009 416.657 181.961 414.089 183.501L413.251 181.604Z" fill="#F50057"/>
<path d="M411.851 170.923C412.525 168.2 413.399 165.531 414.468 162.938C415.375 160.81 418.602 162.105 417.783 164.268C416.718 167.103 415.009 170.06 412.296 171.926L411.851 170.923Z" fill="#F50057"/>
<path d="M409.754 158.084C409.754 158.084 410.164 156.003 410.909 153.487C411.598 151.167 415.105 152.078 414.534 154.429C413.897 157.046 412.789 159.51 410.87 160.591L409.754 158.084Z" fill="#F50057"/>
<path d="M410.242 147.381L412.615 140.839C413.243 139.095 415.859 139.941 415.349 141.712C414.324 145.244 412.545 148.69 409.47 150.652L410.242 147.381Z" fill="#F50057"/>
<path d="M413.199 129.13C413.199 129.13 413.57 128.833 414.137 128.366C415.292 127.407 416.801 129.082 415.711 130.111C413.813 131.836 411.631 133.22 409.261 134.202L413.199 129.13Z" fill="#F50057"/>
<path d="M413.042 125.34C414.46 122.445 416.04 119.632 417.774 116.914C417.873 116.727 417.901 116.509 417.852 116.303C417.803 116.097 417.68 115.915 417.507 115.793C417.334 115.67 417.122 115.615 416.911 115.638C416.7 115.66 416.504 115.759 416.361 115.915C414.965 117.825 413.596 120.621 412.558 124.729L413.042 125.34Z" fill="#F50057"/>
<path d="M410.338 159.968L410.844 159.916C408.663 139.588 409.583 127.054 413.395 124.624L413.12 124.188C409.082 126.775 408.122 139.143 410.338 159.968Z" fill="#444053"/>
<path d="M417.839 208.029L418.594 207.915C418.31 206.036 417.983 204.125 417.617 202.246C414.442 185.747 411.973 170.496 410.739 158.912L410.185 158.476C411.424 170.082 413.674 185.86 416.871 202.381C417.229 204.247 417.556 206.153 417.839 208.029Z" fill="#444053"/>
<path d="M382.513 310.77C382.627 310.679 394.245 301.79 404.446 284.742C410.425 274.766 414.782 263.904 417.355 252.561C420.578 238.383 420.67 221.871 418.345 206.406L417.665 206.951C422.898 241.658 412.915 268.606 403.6 284.184C393.499 301.075 382.016 309.872 381.898 309.959L382.513 310.77Z" fill="#444053"/>
<path d="M85.0164 310.692C101.046 310.692 114.04 308.193 114.04 305.11C114.04 302.027 101.046 299.527 85.0164 299.527C68.9869 299.527 55.9924 302.027 55.9924 305.11C55.9924 308.193 68.9869 310.692 85.0164 310.692Z" fill="#F50057"/>
<path d="M84.5279 307.159C86.3946 307.159 87.9079 305.179 87.9079 302.737C87.9079 300.295 86.3946 298.315 84.5279 298.315C82.6612 298.315 81.1479 300.295 81.1479 302.737C81.1479 305.179 82.6612 307.159 84.5279 307.159Z" fill="#3F3D56"/>
<path d="M84.5279 301.752C86.3946 301.752 87.9079 299.772 87.9079 297.329C87.9079 294.887 86.3946 292.907 84.5279 292.907C82.6612 292.907 81.1479 294.887 81.1479 297.329C81.1479 299.772 82.6612 301.752 84.5279 301.752Z" fill="#3F3D56"/>
<path d="M84.5279 296.348C86.3946 296.348 87.9079 294.368 87.9079 291.926C87.9079 289.483 86.3946 287.503 84.5279 287.503C82.6612 287.503 81.1479 289.483 81.1479 291.926C81.1479 294.368 82.6612 296.348 84.5279 296.348Z" fill="#3F3D56"/>
<path d="M84.5279 290.94C86.3946 290.94 87.9079 288.96 87.9079 286.518C87.9079 284.075 86.3946 282.095 84.5279 282.095C82.6612 282.095 81.1479 284.075 81.1479 286.518C81.1479 288.96 82.6612 290.94 84.5279 290.94Z" fill="#3F3D56"/>
<path d="M84.5279 285.532C86.3946 285.532 87.9079 283.552 87.9079 281.11C87.9079 278.667 86.3946 276.687 84.5279 276.687C82.6612 276.687 81.1479 278.667 81.1479 281.11C81.1479 283.552 82.6612 285.532 84.5279 285.532Z" fill="#3F3D56"/>
<path d="M84.5279 280.129C86.3946 280.129 87.9079 278.149 87.9079 275.706C87.9079 273.264 86.3946 271.284 84.5279 271.284C82.6612 271.284 81.1479 273.264 81.1479 275.706C81.1479 278.149 82.6612 280.129 84.5279 280.129Z" fill="#3F3D56"/>
<path d="M84.5279 274.72C86.3946 274.72 87.9079 272.74 87.9079 270.298C87.9079 267.856 86.3946 265.876 84.5279 265.876C82.6612 265.876 81.1479 267.856 81.1479 270.298C81.1479 272.74 82.6612 274.72 84.5279 274.72Z" fill="#3F3D56"/>
<path d="M97.1756 233.297C97.6388 232.71 98.0599 232.091 98.436 231.444L89.5565 229.987L99.1512 230.057C100.073 228.053 100.576 225.883 100.629 223.678C100.682 221.473 100.285 219.281 99.4609 217.235L86.5778 223.916L98.4578 215.194C97.347 213.266 95.8507 211.588 94.0622 210.264C92.2738 208.94 90.2316 207.999 88.0632 207.499C85.8948 207 83.6468 206.953 81.4594 207.361C79.2721 207.77 77.1924 208.625 75.3502 209.873C73.508 211.121 71.9429 212.735 70.7526 214.615C69.5622 216.495 68.7723 218.6 68.4319 220.799C68.0916 222.998 68.2082 225.244 68.7746 227.396C69.3409 229.548 70.3448 231.56 71.7235 233.306C71.0052 234.222 70.3868 235.212 69.8787 236.259L81.4054 242.247L69.1242 238.121C68.2622 240.672 68.05 243.398 68.507 246.052C68.9639 248.706 70.0754 251.204 71.7409 253.32C69.8618 255.708 68.6926 258.576 68.367 261.597C68.0414 264.618 68.5725 267.669 69.8996 270.403C71.2268 273.136 73.2964 275.441 75.8717 277.053C78.447 278.666 81.4242 279.521 84.4626 279.521C87.5011 279.521 90.4782 278.666 93.0536 277.053C95.6289 275.441 97.6985 273.136 99.0256 270.403C100.353 267.669 100.884 264.618 100.558 261.597C100.233 258.576 99.0635 255.708 97.1843 253.32C99.43 250.468 100.651 246.943 100.651 243.313C100.651 239.683 99.43 236.158 97.1843 233.306L97.1756 233.297Z" fill="#F50057"/>
<path opacity="0.1" d="M68.2693 243.307C68.2656 246.936 69.4855 250.461 71.7321 253.311C69.853 255.699 68.6837 258.567 68.3581 261.588C68.0325 264.609 68.5636 267.661 69.8908 270.394C71.2179 273.128 73.2875 275.432 75.8629 277.045C78.4382 278.657 81.4153 279.512 84.4538 279.512C87.4923 279.512 90.4694 278.657 93.0447 277.045C95.6201 275.432 97.6896 273.128 99.0168 270.394C100.344 267.661 100.875 264.609 100.549 261.588C100.224 258.567 99.0546 255.699 97.1755 253.311C99.3474 250.559 68.2693 241.488 68.2693 243.307Z" fill="black"/>
<path d="M101.567 114.642V307.282C101.567 308.165 101.741 309.039 102.079 309.855C102.417 310.671 102.913 311.413 103.537 312.037C104.162 312.662 104.903 313.157 105.719 313.495C106.535 313.833 107.409 314.007 108.292 314.007H384.738C386.521 314.007 388.232 313.298 389.493 312.037C390.754 310.776 391.463 309.065 391.463 307.282V114.642H101.567Z" fill="white"/>
<path opacity="0.1" d="M190.035 131.886H128.28C126.197 131.886 124.508 133.575 124.508 135.658V168.791C124.508 170.874 126.197 172.563 128.28 172.563H190.035C192.119 172.563 193.808 170.874 193.808 168.791V135.658C193.808 133.575 192.119 131.886 190.035 131.886Z" fill="black"/>
<path opacity="0.1" d="M277.395 131.886H215.64C213.556 131.886 211.867 133.575 211.867 135.658V168.791C211.867 170.874 213.556 172.563 215.64 172.563H277.395C279.478 172.563 281.167 170.874 281.167 168.791V135.658C281.167 133.575 279.478 131.886 277.395 131.886Z" fill="black"/>
<path d="M189.058 132.457H129.252C127.169 132.457 125.48 134.146 125.48 136.23V168.215C125.48 170.298 127.169 171.987 129.252 171.987H189.058C191.141 171.987 192.83 170.298 192.83 168.215V136.23C192.83 134.146 191.141 132.457 189.058 132.457Z" fill="#F50057"/>
<path opacity="0.1" d="M303.972 171.988H363.778C365.861 171.988 367.55 170.299 367.55 168.215V136.23C367.55 134.146 365.861 132.457 363.778 132.457H303.972C301.889 132.457 300.2 134.146 300.2 136.23V168.215C300.2 170.299 301.889 171.988 303.972 171.988Z" fill="#444053"/>
<path d="M216.612 171.988H276.418C278.501 171.988 280.19 170.299 280.19 168.215V136.23C280.19 134.146 278.501 132.457 276.418 132.457H216.612C214.529 132.457 212.84 134.146 212.84 136.23V168.215C212.84 170.299 214.529 171.988 216.612 171.988Z" fill="#F50057"/>
<path opacity="0.1" d="M189.058 189.559H129.252C127.169 189.559 125.48 191.248 125.48 193.331V225.317C125.48 227.4 127.169 229.089 129.252 229.089H189.058C191.141 229.089 192.83 227.4 192.83 225.317V193.331C192.83 191.248 191.141 189.559 189.058 189.559Z" fill="#444053"/>
<path opacity="0.1" d="M303.972 229.089H363.778C365.861 229.089 367.55 227.4 367.55 225.317V193.331C367.55 191.248 365.861 189.559 363.778 189.559H303.972C301.889 189.559 300.2 191.248 300.2 193.331V225.317C300.2 227.4 301.889 229.089 303.972 229.089Z" fill="#444053"/>
<path opacity="0.1" d="M216.612 229.089H276.418C278.501 229.089 280.19 227.4 280.19 225.317V193.331C280.19 191.248 278.501 189.559 276.418 189.559H216.612C214.529 189.559 212.84 191.248 212.84 193.331V225.317C212.84 227.4 214.529 229.089 216.612 229.089Z" fill="#444053"/>
<path opacity="0.1" d="M189.058 246.661H129.252C127.169 246.661 125.48 248.349 125.48 250.433V282.418C125.48 284.502 127.169 286.191 129.252 286.191H189.058C191.141 286.191 192.83 284.502 192.83 282.418V250.433C192.83 248.349 191.141 246.661 189.058 246.661Z" fill="#444053"/>
<path opacity="0.1" d="M303.972 286.195H363.778C365.861 286.195 367.55 284.506 367.55 282.423V250.437C367.55 248.354 365.861 246.665 363.778 246.665H303.972C301.889 246.665 300.2 248.354 300.2 250.437V282.423C300.2 284.506 301.889 286.195 303.972 286.195Z" fill="#444053"/>
<path opacity="0.1" d="M216.612 286.195H276.418C278.501 286.195 280.19 284.506 280.19 282.423V250.437C280.19 248.354 278.501 246.665 276.418 246.665H216.612C214.529 246.665 212.84 248.354 212.84 250.437V282.423C212.84 284.506 214.529 286.195 216.612 286.195Z" fill="#444053"/>
<path d="M101.567 80.6195V115.618H391.463V80.6195C391.463 79.736 391.29 78.861 390.952 78.0446C390.614 77.2282 390.119 76.4863 389.495 75.8614C388.87 75.2365 388.128 74.7407 387.312 74.4025C386.496 74.0642 385.621 73.8901 384.738 73.8901H108.292C107.409 73.8901 106.534 74.0642 105.718 74.4025C104.902 74.7407 104.16 75.2365 103.536 75.8614C102.911 76.4863 102.416 77.2282 102.078 78.0446C101.74 78.861 101.567 79.736 101.567 80.6195ZM173.31 90.9731C172.248 90.9731 171.21 90.6582 170.327 90.0683C169.444 89.4784 168.756 88.6399 168.35 87.6589C167.943 86.6779 167.837 85.5984 168.044 84.557C168.251 83.5156 168.763 82.559 169.513 81.8082C170.264 81.0574 171.221 80.546 172.262 80.3389C173.304 80.1317 174.383 80.2381 175.364 80.6444C176.345 81.0507 177.184 81.7389 177.773 82.6217C178.363 83.5046 178.678 84.5426 178.678 85.6044C178.678 87.0283 178.113 88.3938 177.106 89.4006C176.099 90.4074 174.733 90.9731 173.31 90.9731ZM319.72 90.9731C318.659 90.9731 317.621 90.6582 316.738 90.0683C315.855 89.4784 315.167 88.6399 314.76 87.6589C314.354 86.6779 314.248 85.5984 314.455 84.557C314.662 83.5156 315.173 82.559 315.924 81.8082C316.675 81.0574 317.632 80.546 318.673 80.3389C319.714 80.1317 320.794 80.2381 321.775 80.6444C322.756 81.0507 323.594 81.7389 324.184 82.6217C324.774 83.5046 325.089 84.5426 325.089 85.6044C325.089 86.3102 324.95 87.009 324.68 87.6609C324.409 88.3129 324.013 88.9051 323.514 89.4037C323.014 89.9024 322.421 90.2976 321.769 90.5669C321.117 90.8362 320.417 90.9742 319.712 90.9731H319.72Z" fill="#F50057"/>
<path opacity="0.1" d="M173.309 79.2592C172.054 79.2583 170.827 79.6297 169.783 80.3265C168.739 81.0232 167.925 82.0139 167.444 83.1734C166.963 84.3328 166.837 85.6088 167.081 86.84C167.325 88.0712 167.929 89.2023 168.817 90.0902C169.704 90.9781 170.834 91.5829 172.066 91.8281C173.297 92.0733 174.573 91.9479 175.732 91.4677C176.892 90.9876 177.883 90.1742 178.581 89.1306C179.278 88.087 179.651 86.86 179.651 85.6047C179.651 84.7716 179.488 83.9466 179.169 83.1767C178.851 82.4069 178.384 81.7073 177.795 81.118C177.206 80.5287 176.507 80.0612 175.737 79.7423C174.967 79.4233 174.143 79.2592 173.309 79.2592ZM173.309 90.9734C172.248 90.9734 171.21 90.6585 170.327 90.0686C169.444 89.4787 168.756 88.6402 168.349 87.6592C167.943 86.6782 167.837 85.5988 168.044 84.5574C168.251 83.5159 168.762 82.5593 169.513 81.8085C170.264 81.0577 171.221 80.5464 172.262 80.3392C173.303 80.1321 174.383 80.2384 175.364 80.6447C176.345 81.0511 177.183 81.7392 177.773 82.6221C178.363 83.5049 178.678 84.5429 178.678 85.6047C178.678 87.0286 178.112 88.3941 177.106 89.401C176.099 90.4078 174.733 90.9734 173.309 90.9734Z" fill="black"/>
<path opacity="0.1" d="M319.712 79.2592C318.457 79.2592 317.23 79.6313 316.186 80.3286C315.143 81.0258 314.329 82.0169 313.849 83.1764C313.369 84.3359 313.243 85.6118 313.488 86.8427C313.733 88.0736 314.337 89.2043 315.225 90.0917C316.112 90.9792 317.243 91.5836 318.474 91.8284C319.705 92.0732 320.98 91.9476 322.14 91.4673C323.299 90.987 324.29 90.1737 324.988 89.1302C325.685 88.0866 326.057 86.8598 326.057 85.6047C326.057 83.9218 325.389 82.3078 324.199 81.1177C323.009 79.9277 321.395 79.2592 319.712 79.2592ZM319.712 90.9734C318.65 90.9734 317.612 90.6585 316.729 90.0686C315.846 89.4787 315.158 88.6402 314.752 87.6592C314.345 86.6782 314.239 85.5988 314.446 84.5574C314.653 83.5159 315.165 82.5593 315.915 81.8085C316.666 81.0577 317.623 80.5464 318.664 80.3392C319.706 80.1321 320.785 80.2384 321.766 80.6447C322.747 81.0511 323.586 81.7392 324.175 82.6221C324.765 83.5049 325.08 84.5429 325.08 85.6047C325.08 87.0286 324.515 88.3941 323.508 89.401C322.501 90.4078 321.135 90.9734 319.712 90.9734Z" fill="black"/>
<path opacity="0.1" d="M450.959 190.514C454.637 190.514 457.618 187.532 457.618 183.854C457.618 180.176 454.637 177.195 450.959 177.195C447.281 177.195 444.299 180.176 444.299 183.854C444.299 187.532 447.281 190.514 450.959 190.514Z" fill="#F50057"/>
<path opacity="0.1" d="M474.784 165.319C480.95 165.319 485.949 160.321 485.949 154.154C485.949 147.988 480.95 142.99 474.784 142.99C468.618 142.99 463.619 147.988 463.619 154.154C463.619 160.321 468.618 165.319 474.784 165.319Z" fill="#F50057"/>
<path opacity="0.1" d="M460.004 219.494C466.17 219.494 471.169 214.496 471.169 208.33C471.169 202.163 466.17 197.165 460.004 197.165C453.838 197.165 448.839 202.163 448.839 208.33C448.839 214.496 453.838 219.494 460.004 219.494Z" fill="#F50057"/>
<path opacity="0.1" d="M16.2094 167.225C24.9407 167.225 32.0188 160.147 32.0188 151.416C32.0188 142.684 24.9407 135.606 16.2094 135.606C7.47804 135.606 0.399902 142.684 0.399902 151.416C0.399902 160.147 7.47804 167.225 16.2094 167.225Z" fill="#F50057"/>
<path d="M404.097 323.601C403.104 322.853 402.016 322.242 400.861 321.782C400.773 321.737 400.676 321.712 400.578 321.708C398.188 319.993 395.955 318.07 393.905 315.96C394.341 315.611 394.742 315.271 395.17 314.935C392.553 313.688 391.101 310.831 389.688 308.254C385.952 301.402 381.028 295.268 375.147 290.137C375.003 289.583 374.162 289.701 373.713 289.344C373.566 289.203 373.459 289.026 373.404 288.83C373.348 288.635 373.344 288.428 373.394 288.231C373.464 287.83 373.647 287.46 373.747 287.067C373.987 286.147 373.778 285.179 373.673 284.232C373.569 283.286 373.612 282.23 374.24 281.524C374.441 281.293 374.698 281.114 374.894 280.878C375.101 280.601 375.246 280.283 375.321 279.946C375.396 279.608 375.4 279.259 375.331 278.92C375.283 278.241 375.136 277.572 374.894 276.936C377.031 271.121 379.167 265.296 381.301 259.46C382.797 255.387 384.306 251.226 384.459 246.883C384.581 243.394 383.682 239.769 381.571 237.105C381.955 237.013 382.339 236.917 382.718 236.808C380.224 233.502 379.953 229.124 379.888 224.959C379.853 222.883 379.782 220.805 379.674 218.727C380.398 219.045 381.131 219.328 381.881 219.573L382.579 219.786C383.712 220.118 384.868 220.366 386.037 220.528C386.552 220.602 387.075 220.659 387.594 220.693C386.844 218.815 386.095 216.934 385.348 215.05C384.96 214.216 384.723 213.32 384.65 212.403V212.228C384.65 212.124 384.65 212.019 384.672 211.914C384.702 211.665 384.759 211.419 384.842 211.182C384.881 211.064 384.926 210.949 384.978 210.837C385.133 210.493 385.32 210.165 385.536 209.856C385.693 209.616 385.867 209.385 386.042 209.149C386.692 208.391 387.22 207.536 387.607 206.615C387.761 206.149 387.842 205.662 387.847 205.172C387.856 204.674 387.812 204.177 387.716 203.689C387.655 203.366 387.577 203.039 387.49 202.725C387.433 202.529 387.372 202.333 387.311 202.141L387.258 201.984C387.211 201.835 387.163 201.692 387.11 201.548L387.058 201.399C387.001 201.242 386.944 201.09 386.883 200.933L386.849 200.841C386.016 198.7 384.908 196.659 384.232 194.456C384.054 193.87 383.908 193.275 383.796 192.673C383.765 192.52 383.743 192.363 383.717 192.21C383.691 192.058 383.678 191.949 383.66 191.818C383.643 191.687 383.621 191.512 383.604 191.36L383.565 190.924C383.565 190.784 383.543 190.645 383.534 190.488C383.534 190.222 383.508 189.956 383.503 189.689C383.503 189.594 383.503 189.502 383.503 189.406C383.503 189.205 383.503 189 383.503 188.8C383.503 188.691 383.503 188.582 383.503 188.477C383.503 188.276 383.534 188.076 383.551 187.88C383.551 187.784 383.551 187.688 383.582 187.596C383.611 187.305 383.65 187.015 383.7 186.724C383.743 186.467 383.791 186.205 383.844 185.943C384.002 185.227 384.083 184.496 384.088 183.763C384.088 183.623 384.088 183.479 384.057 183.326C384.027 183.174 384.022 183.091 384.001 182.978C383.999 182.943 383.999 182.908 384.001 182.873C384.001 182.794 383.961 182.716 383.944 182.637C383.927 182.559 383.922 182.563 383.909 182.528C383.896 182.493 383.861 182.376 383.835 182.302C383.809 182.227 383.813 182.236 383.8 182.201C383.787 182.166 383.739 182.044 383.704 181.97L383.674 181.892C383.63 181.796 383.582 181.704 383.534 181.612C383.365 181.294 383.169 180.991 382.95 180.705C381.515 178.821 379.129 177.386 377.816 175.31C377.05 173.965 376.551 172.484 376.347 170.949C376.281 170.6 376.225 170.251 376.164 169.907C376.102 169.562 376.05 169.222 375.989 168.882C375.95 168.673 375.911 168.446 375.867 168.254L375.841 168.119C375.806 167.953 375.771 167.783 375.732 167.617L375.706 167.5C375.666 167.325 375.627 167.151 375.583 166.976L375.557 166.885C375.514 166.701 375.466 166.518 375.418 166.335C375.416 166.313 375.416 166.291 375.418 166.27C375.365 166.078 375.309 165.886 375.252 165.694V165.655C375.191 165.454 375.13 165.258 375.064 165.062C374.999 164.861 374.929 164.656 374.855 164.455C374.777 164.25 374.703 164.045 374.62 163.845C374.071 162.44 373.328 161.119 372.413 159.92C370.415 157.355 367.328 155.515 364.127 155.637C362.408 155.702 360.76 156.304 359.142 156.902L354.942 158.45L356.115 157.909C354.894 158.018 353.647 158.132 352.543 158.672C351.44 159.213 350.506 160.273 350.472 161.512C350.45 162.231 350.733 162.946 350.642 163.662C350.489 164.844 349.403 165.646 348.84 166.693C348.511 167.323 348.36 168.032 348.404 168.742V168.777C348.404 168.86 348.404 168.939 348.404 169.022C348.402 169.045 348.402 169.068 348.404 169.091V169.231C346.66 168.472 344.915 167.683 343.171 166.837C340.288 165.419 337.37 163.753 335.574 161.067C334.998 160.194 334.553 159.252 333.982 158.389C333.326 157.46 332.597 156.585 331.801 155.772L326.45 149.98C326.04 150.752 326.568 151.664 326.982 152.431C327.422 153.237 327.755 154.096 327.972 154.987C328.077 155.278 328.068 155.597 327.946 155.881C327.751 156.115 327.498 156.294 327.213 156.4C326.724 156.708 326.351 157.169 326.151 157.71C325.952 158.252 325.937 158.845 326.11 159.396C326.3 159.939 326.627 160.423 327.061 160.801C327.495 161.179 328.019 161.437 328.583 161.551C328.96 161.594 329.331 161.685 329.686 161.821C330.331 162.14 330.637 162.881 331.099 163.435C331.941 164.447 333.28 164.826 334.557 165.158C336.537 167.443 338.596 169.632 340.576 171.917C343.572 175.376 346.638 178.895 350.546 181.233C350.951 181.477 351.366 181.704 351.784 181.913C351.784 181.983 351.784 182.053 351.762 182.123C351.653 182.638 351.719 183.175 351.95 183.649C352.299 184.203 353.018 184.369 353.66 184.482L356.616 185.01C356.59 185.393 356.542 185.775 356.473 186.153C356.433 186.384 356.385 186.61 356.342 186.842L356.289 187.138C356.289 187.138 356.289 187.169 356.289 187.182C356.289 187.195 356.289 187.339 356.259 187.422C356.228 187.504 356.259 187.478 356.259 187.504V187.714V187.801C356.259 187.893 356.259 187.989 356.259 188.085C356.359 189.245 357.131 190.204 357.903 191.089L358.317 191.591C357.66 192.419 357.199 193.385 356.97 194.417C356.838 195.064 356.774 195.723 356.778 196.384C356.382 196.761 356.083 197.228 355.906 197.745C355.699 198.459 355.622 199.205 355.679 199.947V199.999C355.679 200.274 355.679 200.545 355.679 200.819C355.628 201.861 355.801 202.902 356.185 203.872C356.224 203.951 356.268 204.02 356.307 204.095C355.653 205.377 354.562 206.376 353.782 207.584C352.992 208.925 352.635 210.477 352.759 212.028C352.883 213.58 353.482 215.055 354.475 216.254C355.073 216.943 355.84 217.606 355.91 218.522C355.9 218.937 355.859 219.351 355.788 219.76C355.718 220.746 356.172 221.679 356.416 222.634C356.621 223.428 356.63 224.379 356.176 225.015C355.717 225.685 355.506 226.493 355.579 227.301C355.801 228.535 355.291 229.769 355.203 231.021C355.164 231.557 355.203 232.102 355.155 232.639C355.093 233.153 354.986 233.661 354.837 234.157C354.837 234.209 354.811 234.266 354.794 234.322C353.716 234.798 352.648 235.29 351.619 235.862C351.063 236.109 350.603 236.532 350.31 237.066C350.136 237.601 350.112 238.174 350.24 238.723L351.169 245.186L351.008 245.116C351.081 246.175 351.156 247.237 351.235 248.304C351.291 249.111 351.366 249.966 351.845 250.611C352.089 250.872 352.31 251.154 352.504 251.453C352.87 252.195 352.434 253.058 352.111 253.817C351.789 254.576 351.675 255.653 352.386 256.063C352.757 256.321 353.156 256.535 353.577 256.7C352.704 260.337 353.507 264.149 354.318 267.799C354.937 270.59 355.558 273.379 356.18 276.164C356.424 277.347 356.561 278.55 356.59 279.758C356.59 279.932 356.59 280.106 356.59 280.281C356.678 281.942 356.971 283.585 357.463 285.174C358.431 288.436 357.502 292.353 357.807 295.907C358.01 297.617 358.351 299.307 358.828 300.962C360.934 309.318 362.814 317.508 363.538 326.1C364.312 327.086 365.363 327.82 366.556 328.206C366.469 329.262 366.586 330.47 366.556 331.085C366.555 331.594 366.475 332.1 366.32 332.585C365.95 333.553 365.012 334.186 364.039 334.526C363.734 334.631 363.424 334.713 363.11 334.788L363.459 334.491C361.465 334.058 359.381 334.424 357.654 335.512C357.383 335.65 357.142 335.84 356.945 336.072C356.748 336.305 356.6 336.573 356.507 336.864C356.436 337.418 356.579 337.978 356.909 338.429C357.869 339.835 359.3 340.851 360.943 341.295C362.567 341.722 364.236 341.955 365.915 341.988L368.994 342.167C368.889 342.343 368.852 342.55 368.889 342.752C368.926 342.953 369.034 343.134 369.194 343.261C369.524 343.502 369.916 343.645 370.324 343.671C371.582 343.858 372.859 343.877 374.122 343.728C374.439 343.719 374.745 343.609 374.995 343.414C375.053 343.361 375.099 343.297 375.131 343.225C375.163 343.154 375.179 343.076 375.179 342.998C375.179 342.919 375.163 342.842 375.131 342.77C375.099 342.698 375.053 342.634 374.995 342.581C375.179 342.575 375.358 342.514 375.508 342.405C375.657 342.296 375.77 342.145 375.832 341.971C375.953 341.616 375.992 341.239 375.945 340.867C375.863 339.432 375.736 337.348 374.99 336.07C374.861 335.837 374.66 335.653 374.416 335.546C374.173 335.439 373.901 335.415 373.643 335.477C373.16 332.923 372.869 330.337 372.77 327.74C373.539 327.452 374.288 327.114 375.012 326.728C372.871 323.27 372.832 318.878 373.486 314.857C373.745 313.587 373.936 312.305 374.057 311.015C374.201 308.441 373.813 305.528 372.387 303.4C374.986 305.053 377.287 307.135 379.19 309.558C382.204 313.483 384.04 318.237 387.734 321.508C388.219 321.034 388.711 320.563 389.208 320.095C389.987 321.415 390.724 322.762 391.419 324.137C391.964 325.149 392.394 326.218 392.701 327.326C393.041 329.019 393.081 330.76 392.819 332.467C392.717 333.375 392.594 334.277 392.448 335.176C392.39 335.56 392.301 335.939 392.182 336.31C392.181 336.191 392.152 336.075 392.099 335.969C391.868 335.564 391.227 335.747 390.878 336.026C390.257 336.492 389.744 337.088 389.374 337.771C389.17 338.104 389.076 338.493 389.103 338.883C389.16 339.117 389.267 339.337 389.418 339.525C389.569 339.714 389.759 339.866 389.976 339.973C391.594 340.919 393.626 340.235 395.362 339.537C395.841 339.364 396.298 339.135 396.722 338.852C397.595 338.224 398.07 337.191 398.938 336.58C399.401 336.326 399.848 336.043 400.277 335.734C401.084 334.997 401.149 333.754 401.738 332.821C402.715 331.211 404.9 330.797 405.754 329.092C406.744 327.208 405.589 324.831 404.097 323.601Z" fill="url(#paint0_linear)"/>
<path d="M366.499 331.277C366.496 331.781 366.415 332.281 366.259 332.76C365.893 333.715 364.951 334.338 363.982 334.674C363.014 335.01 361.985 335.11 360.999 335.403C360.566 335.501 360.166 335.708 359.835 336.004C358.963 336.877 359.486 338.447 360.506 339.097C361.527 339.746 362.827 339.725 364.039 339.642C366.612 339.492 369.167 339.129 371.68 338.556C372.587 338.342 373.647 337.923 373.791 337.003C373.818 336.711 373.794 336.415 373.721 336.131C373.102 333.009 372.774 329.836 372.74 326.654C372.74 326.445 367.681 326.309 367.21 326.615C366.154 327.308 366.555 330.204 366.499 331.277Z" fill="#A1616A"/>
<path d="M389.055 320.169C389.892 321.556 390.679 322.97 391.415 324.413C391.959 325.409 392.39 326.464 392.697 327.557C393.035 329.228 393.075 330.945 392.814 332.629C392.713 333.522 392.588 334.413 392.439 335.303C392.295 336.175 392.064 337.165 391.319 337.666C391.651 337.863 392.023 337.983 392.408 338.017C392.793 338.051 393.181 337.998 393.543 337.863C394.262 337.584 394.926 337.178 395.501 336.663C399.239 333.58 402.043 329.101 402.182 324.256C402.222 323.877 402.151 323.495 401.977 323.157C401.801 322.919 401.579 322.721 401.323 322.572C398.534 320.673 395.944 318.497 393.591 316.078C393.453 315.892 393.251 315.763 393.024 315.716C392.845 315.717 392.67 315.767 392.518 315.86C391.083 316.58 388.684 317.605 388.087 319.24C388.495 319.446 388.833 319.77 389.055 320.169Z" fill="#A1616A"/>
<path d="M371.61 336.34C368.47 337.649 365.068 338.12 361.671 338.569C361.235 338.621 360.768 338.656 360.48 338.351C360.366 338.209 360.297 338.035 360.283 337.853C360.269 337.671 360.311 337.489 360.402 337.33C360.587 337.016 360.835 336.743 361.13 336.528L363.385 334.64C361.419 334.222 359.368 334.575 357.654 335.625C357.116 335.894 356.705 336.364 356.512 336.934C356.439 337.482 356.583 338.038 356.913 338.482C357.878 339.873 359.306 340.874 360.943 341.308C362.566 341.729 364.233 341.959 365.91 341.993L368.963 342.167C368.858 342.341 368.821 342.547 368.858 342.747C368.896 342.947 369.006 343.125 369.168 343.249C369.499 343.491 369.892 343.634 370.302 343.663C371.559 343.846 372.834 343.864 374.096 343.715C374.413 343.71 374.719 343.601 374.968 343.406C375.026 343.354 375.072 343.291 375.104 343.22C375.136 343.15 375.152 343.073 375.152 342.996C375.152 342.918 375.136 342.842 375.104 342.771C375.072 342.7 375.026 342.637 374.968 342.586C375.153 342.58 375.331 342.519 375.48 342.411C375.629 342.303 375.743 342.153 375.806 341.98C375.922 341.63 375.961 341.26 375.919 340.894C375.836 339.481 375.71 337.405 374.964 336.17C374.218 334.936 372.666 335.904 371.61 336.34Z" fill="#3F3D56"/>
<path d="M404.019 323.872C403.024 323.134 401.936 322.531 400.783 322.079C400.737 322.044 400.683 322.019 400.626 322.008C400.569 321.996 400.511 321.997 400.454 322.012C400.398 322.026 400.346 322.053 400.301 322.09C400.257 322.127 400.222 322.174 400.198 322.227C398.139 325.022 396.53 328.123 395.431 331.417C394.808 333.292 394.315 335.289 393.05 336.807C392.884 337.008 392.614 337.213 392.387 337.095C392.06 336.929 392.261 336.401 392.078 336.083C391.851 335.682 391.231 335.865 390.861 336.14C390.237 336.603 389.725 337.199 389.36 337.884C389.152 338.209 389.057 338.594 389.09 338.979C389.145 339.209 389.249 339.425 389.396 339.61C389.543 339.795 389.729 339.946 389.941 340.052C391.559 340.989 393.591 340.313 395.322 339.616C395.8 339.447 396.256 339.22 396.679 338.94C397.551 338.325 398.026 337.3 398.894 336.702C399.357 336.451 399.804 336.172 400.233 335.865C401.035 335.137 401.105 333.911 401.69 332.987C402.667 331.403 404.852 330.994 405.706 329.31C406.661 327.43 405.51 325.084 404.019 323.872Z" fill="#3F3D56"/>
<path d="M379.678 236.756C383.106 239.329 384.545 243.904 384.393 248.187C384.24 252.47 382.735 256.578 381.244 260.595C379.107 266.343 376.973 272.089 374.842 277.835C375.079 278.465 375.226 279.126 375.278 279.797C375.345 280.131 375.341 280.475 375.266 280.808C375.191 281.14 375.046 281.452 374.842 281.725C374.641 281.956 374.405 282.135 374.187 282.361C373.559 283.059 373.52 284.106 373.62 285.035C373.721 285.964 373.934 286.923 373.695 287.83C373.594 288.219 373.411 288.585 373.341 288.977C373.293 289.172 373.296 289.377 373.352 289.57C373.408 289.763 373.514 289.938 373.66 290.076C374.096 290.425 374.968 290.312 375.095 290.861C380.959 295.912 385.876 301.967 389.617 308.743C391.03 311.285 392.457 314.102 395.095 315.332C392.524 317.369 390.06 319.536 387.712 321.826C384.026 318.599 382.19 313.902 379.181 310.051C377.276 307.656 374.979 305.602 372.386 303.976C373.812 306.073 374.201 308.952 374.057 311.486C373.936 312.759 373.745 314.024 373.485 315.276C372.809 319.244 372.87 323.562 375.012 326.99C372.726 328.176 370.101 329.057 367.55 328.704C365.949 328.476 364.495 327.646 363.485 326.384C362.761 317.905 360.868 309.811 358.779 301.581C358.3 299.94 357.96 298.26 357.763 296.562C357.458 293.073 358.387 289.191 357.414 285.973C356.924 284.407 356.631 282.787 356.542 281.149C356.542 280.975 356.542 280.804 356.542 280.63C356.512 279.44 356.375 278.254 356.132 277.089L354.274 268.837C353.463 265.231 352.652 261.471 353.528 257.882C353.11 257.72 352.712 257.511 352.342 257.258C351.631 256.853 351.745 255.793 352.067 255.043C352.39 254.293 352.822 253.442 352.46 252.709C352.267 252.412 352.046 252.133 351.801 251.876C351.322 251.24 351.247 250.398 351.191 249.604L350.964 246.455C352.28 246.977 353.377 247.937 354.069 249.173C352.351 246.512 353.197 242.718 354.466 239.813C354.702 238.924 355.219 238.134 355.941 237.563C356.662 236.991 357.549 236.668 358.47 236.643C365.461 235.448 374 232.486 379.678 236.756Z" fill="#3F3D56"/>
<path opacity="0.1" d="M376.491 254.663C376.491 254.663 373.054 256.957 373.054 258.676C373.054 260.394 372.182 275.859 372.182 275.859V286.762C372.182 286.762 372.753 292.493 372.182 293.923C371.61 295.354 372.182 301.943 372.182 302.803C372.182 303.662 373.054 293.923 373.054 293.923V283.596L373.926 260.106L376.491 254.663Z" fill="black"/>
<path d="M357.323 175.228L355.321 174.447C351.23 172.807 347.135 171.163 343.175 169.24C340.296 167.84 337.379 166.187 335.586 163.548C335.011 162.676 334.566 161.76 333.995 160.901C333.338 159.982 332.609 159.117 331.814 158.315L326.467 152.602C326.057 153.365 326.58 154.263 326.999 155.018C327.437 155.813 327.77 156.662 327.989 157.543C328.092 157.827 328.081 158.139 327.959 158.415C327.766 158.649 327.515 158.826 327.23 158.93C326.743 159.228 326.37 159.681 326.17 160.216C325.97 160.751 325.955 161.338 326.127 161.882C326.318 162.421 326.646 162.9 327.079 163.273C327.512 163.647 328.035 163.901 328.595 164.011C328.973 164.054 329.343 164.144 329.699 164.277C330.344 164.595 330.649 165.323 331.112 165.869C331.953 166.867 333.292 167.247 334.566 167.569C336.546 169.824 338.6 171.983 340.58 174.238C343.572 177.648 346.633 181.12 350.541 183.431C351.929 184.28 353.448 184.89 355.037 185.237C355.563 181.851 356.327 178.506 357.323 175.228Z" fill="#A1616A"/>
<path opacity="0.15" d="M357.323 175.228L355.321 174.447C351.23 172.807 347.135 171.163 343.175 169.24C340.296 167.84 337.379 166.187 335.586 163.548C335.011 162.676 334.566 161.76 333.995 160.901C333.338 159.982 332.609 159.117 331.814 158.315L326.467 152.602C326.057 153.365 326.58 154.263 326.999 155.018C327.437 155.813 327.77 156.662 327.989 157.543C328.092 157.827 328.081 158.139 327.959 158.415C327.766 158.649 327.515 158.826 327.23 158.93C326.743 159.228 326.37 159.681 326.17 160.216C325.97 160.751 325.955 161.338 326.127 161.882C326.318 162.421 326.646 162.9 327.079 163.273C327.512 163.647 328.035 163.901 328.595 164.011C328.973 164.054 329.343 164.144 329.699 164.277C330.344 164.595 330.649 165.323 331.112 165.869C331.953 166.867 333.292 167.247 334.566 167.569C336.546 169.824 338.6 171.983 340.58 174.238C343.572 177.648 346.633 181.12 350.541 183.431C351.929 184.28 353.448 184.89 355.037 185.237C355.563 181.851 356.327 178.506 357.323 175.228Z" fill="black"/>
<path d="M353.659 186.615C353.018 186.502 352.299 186.345 351.95 185.795C351.719 185.329 351.653 184.799 351.762 184.29C352.109 181.003 352.841 177.768 353.943 174.652C354.915 176.453 356.83 177.504 358.644 178.451C360.264 179.351 361.953 180.121 363.695 180.753C363.258 180.614 362.19 187.321 361.588 187.731C360.829 188.263 358.998 187.544 358.156 187.4L353.659 186.615Z" fill="#F50057"/>
<path d="M358.304 184.635C363.367 184.635 367.472 180.531 367.472 175.468C367.472 170.405 363.367 166.3 358.304 166.3C353.241 166.3 349.137 170.405 349.137 175.468C349.137 180.531 353.241 184.635 358.304 184.635Z" fill="#A1616A"/>
<path d="M356.442 183.056C356.442 183.056 362.456 188.211 359.879 191.648C357.301 195.084 355.866 197.378 359.303 197.666C362.74 197.954 374.196 191.936 374.196 191.936C374.196 191.936 363.599 183.344 365.317 178.189C367.035 173.034 356.442 183.056 356.442 183.056Z" fill="#FBBEBE"/>
<path d="M362.212 191.125C360.93 191.433 359.759 192.091 358.829 193.026C357.9 193.961 357.248 195.135 356.948 196.419C356.272 199.507 357.707 202.961 356.355 205.804C355.718 207.156 354.536 208.168 353.738 209.437C352.952 210.758 352.596 212.291 352.72 213.823C352.843 215.356 353.44 216.812 354.427 217.99C355.024 218.67 355.792 219.329 355.862 220.227C355.852 220.637 355.811 221.045 355.74 221.448C355.67 222.421 356.123 223.345 356.368 224.287C356.573 225.068 356.581 226.006 356.128 226.634C355.67 227.292 355.46 228.09 355.535 228.888C355.753 230.11 355.242 231.326 355.155 232.561C355.116 233.093 355.155 233.625 355.107 234.157C355.044 234.663 354.939 235.164 354.793 235.653L354.026 238.483C358.186 240.263 362.609 240.904 367.109 240.821C371.139 240.742 375.112 239.909 379.055 239.076C380.254 238.823 381.453 238.57 382.635 238.243C380.141 234.981 379.875 230.659 379.805 226.555C379.696 219.713 379.185 212.883 378.274 206.101C379.482 203.82 380.019 201.278 380.516 198.744C380.739 197.723 380.833 196.678 380.795 195.634C380.673 193.453 379.67 191.382 378.688 189.406C377.79 187.601 376.817 185.699 374.816 184.919C374.332 184.715 373.805 184.638 373.284 184.695C372.762 184.753 372.264 184.942 371.837 185.246C370.324 186.388 370.773 188.36 370.385 190.043C369.874 192.224 367.864 193.789 365.722 194.404C364.124 194.823 362.468 194.978 360.82 194.862C360.659 194.853 360.503 194.799 360.371 194.706C360.238 194.614 360.134 194.486 360.07 194.338C360.005 194.189 359.984 194.026 360.007 193.866C360.03 193.706 360.097 193.556 360.201 193.432C360.903 192.655 361.61 191.866 362.212 191.125Z" fill="#F50057"/>
<path d="M369.312 226.559C365.919 229.333 362.486 232.133 358.57 234.096C356.272 235.247 353.829 236.097 351.592 237.336C351.039 237.579 350.58 237.995 350.284 238.522C350.106 239.05 350.081 239.617 350.214 240.158L351.208 247.014C351.483 248.872 353.267 250.066 354.697 251.253C354.619 250.629 354.492 250.145 354.789 249.591C354.892 249.418 355.004 249.251 355.125 249.09C355.735 248.165 355.757 246.966 355.609 245.867C355.46 244.768 355.173 243.686 355.229 242.561C355.217 242.375 355.253 242.188 355.334 242.02C355.415 241.852 355.538 241.708 355.692 241.601C360.563 239.259 365.81 237.463 370.733 235.238C372.036 234.712 373.264 234.015 374.384 233.167C375.509 232.303 376.267 231.046 376.503 229.647C376.526 229.557 376.53 229.462 376.515 229.37C376.5 229.278 376.466 229.19 376.416 229.111C376.317 229.002 376.188 228.926 376.045 228.893C373.839 228.09 371.51 227.353 369.312 226.559Z" fill="#A1616A"/>
<path opacity="0.1" d="M359.887 197.793C358.204 198.076 356.433 198.948 355.862 200.562C355.656 201.27 355.58 202.008 355.635 202.743C355.583 203.775 355.757 204.807 356.145 205.765C356.432 206.294 356.774 206.791 357.166 207.248C361.196 212.412 363.219 218.897 367.144 224.143C367.493 224.606 368.13 225.207 367.934 225.753C367.863 225.894 367.8 226.04 367.746 226.189C367.728 226.33 367.745 226.473 367.796 226.606C367.846 226.739 367.928 226.858 368.034 226.952C368.243 227.144 368.406 227.381 368.51 227.645C368.584 227.92 368.401 228.278 368.117 228.256C368.588 229.713 370.032 230.563 371.401 231.252C373.678 232.399 376.198 233.302 378.732 233.053C379.208 231.147 379.871 228.993 379.605 227.052C379.326 225.57 378.834 224.136 378.143 222.796L376.438 219.071C374.986 215.892 373.521 212.691 371.497 209.843C370.768 208.941 370.154 207.952 369.67 206.899C369.151 205.551 367.725 204.605 366.861 203.449C365.579 201.705 364.244 199.96 362.526 198.7C361.837 198.168 360.729 197.653 359.887 197.793Z" fill="black"/>
<path d="M359.887 196.934C358.204 197.217 356.433 198.09 355.862 199.699C355.657 200.406 355.58 201.145 355.635 201.879C355.583 202.912 355.757 203.944 356.145 204.902C356.432 205.431 356.774 205.928 357.166 206.385C361.196 211.548 363.219 218.033 367.144 223.28C367.493 223.742 368.13 224.344 367.934 224.889C367.862 225.031 367.8 225.176 367.746 225.325C367.728 225.466 367.745 225.61 367.795 225.743C367.846 225.876 367.927 225.995 368.034 226.089C368.243 226.281 368.406 226.518 368.509 226.782C368.584 227.057 368.4 227.414 368.117 227.393C368.588 228.849 370.031 229.7 371.401 230.389C373.677 231.536 376.198 232.439 378.732 232.19C379.208 230.284 379.87 228.13 379.604 226.189C379.326 224.707 378.834 223.273 378.143 221.932L376.438 218.208C374.986 215.029 373.52 211.827 371.497 208.98C370.767 208.077 370.153 207.087 369.669 206.031C369.151 204.688 367.724 203.742 366.861 202.586C365.579 200.841 364.244 199.097 362.526 197.837C361.837 197.309 360.729 196.794 359.887 196.934Z" fill="#F50057"/>
<path d="M356.045 160.408C354.828 160.513 353.577 160.626 352.477 161.158C351.378 161.691 350.441 162.737 350.406 163.958C350.406 164.669 350.668 165.376 350.576 166.078C350.423 167.247 349.337 168.036 348.779 169.07C347.802 170.867 348.561 173.152 349.826 174.739C351.091 176.327 352.805 177.548 354.104 179.127C355.129 180.389 355.871 181.857 356.279 183.431C356.687 185.006 356.751 186.649 356.468 188.25C356.307 188.873 356.229 189.514 356.237 190.156C356.337 191.299 357.109 192.245 357.877 193.118C361.611 197.484 365.066 202.081 368.222 206.882C369.168 208.276 370.019 209.733 370.768 211.243C371.51 212.804 372.077 214.47 373.106 215.853C374.056 217.04 375.22 218.038 376.538 218.796C379.863 220.847 383.633 222.063 387.529 222.342L385.283 216.773C384.886 215.783 384.476 214.741 384.607 213.681C384.855 211.675 386.879 210.358 387.537 208.447C387.974 207.217 387.777 205.861 387.42 204.609C386.626 201.788 385.038 199.249 384.184 196.445C383.434 193.986 383.267 191.387 383.695 188.852C383.883 187.736 384.188 186.615 384.048 185.494C383.634 182.084 379.635 180.453 377.786 177.561C376.591 175.703 376.36 173.414 375.958 171.242C375.378 168.071 374.345 164.905 372.347 162.375C370.35 159.846 367.271 158.014 364.061 158.149C362.343 158.215 360.698 158.812 359.08 159.397L354.876 160.927" fill="#3F3D56"/>
<g opacity="0.1">
<path opacity="0.1" d="M374.811 167.53C375.173 169.488 375.4 171.542 376.316 173.291C376.189 172.611 376.085 171.926 375.958 171.254C375.662 169.545 375.192 167.87 374.554 166.256C374.663 166.68 374.737 167.103 374.811 167.53Z" fill="black"/>
<path opacity="0.1" d="M382.548 185.141C382.122 187.677 382.29 190.277 383.037 192.738C383.242 193.405 383.473 194.047 383.752 194.701C383.389 192.774 383.37 190.799 383.695 188.865C383.883 187.749 384.188 186.628 384.049 185.507C383.92 184.547 383.528 183.641 382.915 182.891C382.849 183.649 382.675 184.395 382.548 185.141Z" fill="black"/>
<path opacity="0.1" d="M387.42 204.622C387.178 203.803 386.887 202.999 386.548 202.215C386.694 203.056 386.637 203.921 386.382 204.736C385.723 206.642 383.695 207.963 383.451 209.969C383.32 211.029 383.726 212.071 384.127 213.061C384.275 213.432 384.424 213.807 384.563 214.178C384.552 214.017 384.552 213.855 384.563 213.694C384.812 211.687 386.835 210.37 387.494 208.46C387.965 207.23 387.777 205.874 387.42 204.622Z" fill="black"/>
<path opacity="0.1" d="M375.396 215.085C374.078 214.325 372.914 213.325 371.964 212.137C370.93 210.754 370.363 209.084 369.622 207.527C368.873 206.017 368.022 204.559 367.075 203.166C363.92 198.364 360.466 193.765 356.734 189.397C356.599 189.245 356.468 189.088 356.337 188.931C356.247 189.334 356.214 189.748 356.237 190.161C356.337 191.303 357.109 192.25 357.877 193.122C361.611 197.488 365.066 202.085 368.222 206.886C369.168 208.28 370.019 209.737 370.769 211.247C371.51 212.808 372.077 214.474 373.106 215.857C374.056 217.044 375.221 218.042 376.538 218.801C379.863 220.851 383.633 222.067 387.529 222.346L386.002 218.596C382.242 218.266 378.61 217.064 375.396 215.085Z" fill="black"/>
<path opacity="0.1" d="M352.957 175.419C351.649 173.841 349.944 172.641 348.679 171.036C348.565 170.888 348.456 170.735 348.347 170.574C348.321 172.101 348.846 173.585 349.826 174.757C351.091 176.366 352.805 177.565 354.104 179.144C354.612 179.757 355.05 180.424 355.413 181.133C355.142 179.037 354.292 177.058 352.957 175.419Z" fill="black"/>
</g>
<path d="M182.717 130.652L179.555 127.472C179.399 127.315 179.213 127.19 179.008 127.104C178.804 127.019 178.584 126.975 178.362 126.975C178.14 126.975 177.921 127.019 177.716 127.104C177.511 127.19 177.325 127.315 177.169 127.472L157.313 147.146L148.913 138.685C148.599 138.371 148.173 138.195 147.729 138.195C147.285 138.195 146.859 138.371 146.545 138.685L143.348 141.847C143.034 142.165 142.858 142.593 142.858 143.04C142.858 143.486 143.034 143.915 143.348 144.233L156.105 157.085C156.421 157.399 156.849 157.575 157.295 157.575C157.741 157.575 158.169 157.399 158.486 157.085L182.717 133.037C182.874 132.881 183 132.695 183.085 132.491C183.17 132.286 183.214 132.066 183.214 131.844C183.214 131.623 183.17 131.403 183.085 131.198C183 130.994 182.874 130.808 182.717 130.652Z" fill="#3ACC6C"/>
<path d="M270.377 130.652L267.216 127.472C267.059 127.315 266.874 127.19 266.669 127.104C266.464 127.019 266.245 126.975 266.023 126.975C265.801 126.975 265.581 127.019 265.377 127.104C265.172 127.19 264.986 127.315 264.83 127.472L244.973 147.146L236.574 138.685C236.26 138.371 235.834 138.195 235.39 138.195C234.945 138.195 234.52 138.371 234.205 138.685L231.009 141.847C230.695 142.165 230.519 142.593 230.519 143.04C230.519 143.486 230.695 143.915 231.009 144.233L243.765 157.085C244.082 157.399 244.51 157.575 244.956 157.575C245.402 157.575 245.83 157.399 246.146 157.085L270.377 133.037C270.535 132.881 270.66 132.695 270.745 132.491C270.831 132.286 270.875 132.066 270.875 131.844C270.875 131.623 270.831 131.403 270.745 131.198C270.66 130.994 270.535 130.808 270.377 130.652Z" fill="#3ACC6C"/>
</g>
<defs>
<linearGradient id="paint0_linear" x1="366.08" y1="343.824" x2="366.08" y2="149.972" gradientUnits="userSpaceOnUse">
<stop stop-color="#808080" stop-opacity="0.25"/>
<stop offset="0.54" stop-color="#808080" stop-opacity="0.12"/>
<stop offset="1" stop-color="#808080" stop-opacity="0.1"/>
</linearGradient>
<clipPath id="clip0">
<rect width="492.091" height="343.12" fill="white" transform="translate(0.399902 0.708984)"/>
</clipPath>
</defs>
</svg>
