<svg width="26" height="34" viewBox="0 0 26 34" fill="none" xmlns="http://www.w3.org/2000/svg">
<path d="M22.1765 12.7304H19.88V7.49025C19.88 3.77365 16.7926 0.75 12.9976 0.75C9.20273 0.75 6.11529 3.77365 6.11529 7.49025V12.7304H3.82353C1.71524 12.7304 0 14.4456 0 16.5539V29.5539C0 31.6622 1.71524 33.3775 3.82353 33.3775H22.1765C24.2848 33.3775 26 31.6622 26 29.5539V16.5539C26 14.4456 24.2848 12.7304 22.1765 12.7304ZM8.66431 7.49025C8.66431 5.17918 10.6083 3.29902 12.9976 3.29902C15.387 3.29902 17.331 5.17918 17.331 7.49025V12.7304H8.66431V7.49025ZM23.451 29.5539C23.451 30.2567 22.8792 30.8284 22.1765 30.8284H3.82353C3.12076 30.8284 2.54902 30.2567 2.54902 29.5539V16.5539C2.54902 15.8512 3.12076 15.2794 3.82353 15.2794H22.1765C22.8792 15.2794 23.451 15.8512 23.451 16.5539V29.5539Z" fill="#6C6262" fill-opacity="0.56"/>
</svg>
